<svg width="18" height="14" viewBox="0 0 18 14" fill="none" xmlns="http://www.w3.org/2000/svg"><g clip-path="url(#clip0_5573_34161)"><rect x="1" y="1" width="16" height="12" rx="1" fill="#1A47B8"></rect><path fill-rule="evenodd" clip-rule="evenodd" d="M2.70207 1H1V3L15.2887 13L17 13V11L2.70207 1Z" fill="white"></path><path d="M1.56769 1L17 11.8283V13H16.4456L1 2.16045V1H1.56769Z" fill="#F93939"></path><path fill-rule="evenodd" clip-rule="evenodd" d="M15.4763 1H17.0001V3C17.0001 3 7.10283 9.66245 2.52393 13H1.00012V11L15.4763 1Z" fill="white"></path><path d="M17 1H16.4832L1 11.8377V13H1.56769L17 2.16921V1Z" fill="#F93939"></path><path fill-rule="evenodd" clip-rule="evenodd" d="M6.81873 1H11.1946V4.70145H17V9.29611H11.1946V13H6.81873V9.29611H1V4.70145H6.81873V1Z" fill="white"></path><path fill-rule="evenodd" clip-rule="evenodd" d="M7.73684 1H10.2632V5.61538H17V8.38462H10.2632V13H7.73684V8.38462H1V5.61538H7.73684V1Z" fill="#F93939"></path></g><rect x="0.5" y="0.5" width="17" height="13" rx="1.5" stroke="#FDFDFD"></rect><defs><clipPath id="clip0_5573_34161"><rect x="1" y="1" width="16" height="12" rx="1" fill="white"></rect></clipPath></defs></svg>