<svg width="152" height="40" viewBox="0 0 152 40" xmlns="http://www.w3.org/2000/svg" xmlns:xlink="http://www.w3.org/1999/xlink" class="pointer-events-none absolute left-0 top-0 h-full"><title>Stroke 17</title><defs><path id="a" d="M0 0h200v40H0z"></path></defs><g transform="translate(-26)" fill="none" fill-rule="evenodd"><mask id="b" fill="#fff"><use xlink:href="#a"></use></mask><path d="M71.802 9.047l-53.939-49.99c-.087-.081 18.02-.833 54.323-2.257.075-.003.121 17.323.137 51.978l126.604-49.635c.147-.057-20.108 14.078-60.767 42.407l39.78 20.158c.084.042-14.391 13.663-43.423 40.865l-23.86 36.276c-.06.093-7.826-22.143-23.296-66.708L.057 58.153c-.146.043 23.77-16.325 71.745-49.106zm62.352 51.174l3.403-58.42-65.084 7.432 15.156 22.514 46.525 28.474zM72.29 8.96l-.144.31.328-.037-.184-.273zm-.24-.075l.274.187v-.294l-.273.107zM18.492-40.907L71.923 8.614l.07-51.407-53.502 1.886zM71.923 9.07a.2.2 0 0 0 .034.112l.004.006a.2.2 0 0 0 .235.069l.02-.008.019-.013a.2.2 0 0 0 .024-.312l-.068-.063-.09.01a.2.2 0 0 0-.178.19v.01zm1.697-.37l64.078-7.316 59.765-41.236L73.62 8.699zm64.332-6.807l-3.418 58.686a.2.2 0 0 1-.304.159L87.858 32.356l22.69 65.933 23.665-35.972 43.292-40.382-39.553-20.043zM72.069 9.35L1.185 57.4 87.17 31.78 72.069 9.35z" fill="#B2B2B2" fill-rule="nonzero" mask="url(#b)"></path></g></svg>