<svg width="137" height="40" viewBox="0 0 137 40" xmlns="http://www.w3.org/2000/svg" xmlns:xlink="http://www.w3.org/1999/xlink" class="pointer-events-none absolute right-0 top-0 h-full"><title>Stroke 17</title><defs><path id="a" d="M0 0h200v40H0z"></path></defs><g transform="translate(-38)" fill="none" fill-rule="evenodd"><mask id="b" fill="#fff"><use xlink:href="#a"></use></mask><path d="M72.802 32.047l-53.939-49.99c-.087-.081 18.02-.833 54.323-2.257.075-.003.121 17.323.137 51.978l126.604-49.635c.147-.057-20.108 14.078-60.767 42.407l39.78 20.158c.084.042-14.391 13.663-43.423 40.865l-23.86 36.276c-.06.093-7.826-22.143-23.296-66.708L1.057 81.153c-.146.043 23.77-16.325 71.745-49.106zm62.352 51.174l3.403-58.42-65.084 7.432 15.156 22.514 46.525 28.474zM73.29 31.96l-.144.31.328-.037-.184-.273zm-.24-.075l.274.187v-.294l-.273.107zm-.126-.27l.07-51.408-53.502 1.886 53.432 49.521zm0 .456a.2.2 0 0 0 .034.112l.004.006a.2.2 0 0 0 .235.069l.02-.008.019-.013a.2.2 0 0 0 .024-.312l-.068-.063-.09.01a.2.2 0 0 0-.178.19v.01zm65.775-7.688l59.765-41.236L74.62 31.699l64.078-7.316zm-3.164 59.195a.2.2 0 0 1-.304.159L88.858 55.356l22.69 65.933 23.665-35.972 43.292-40.382-39.553-20.043-3.418 58.686zM2.185 80.399L88.17 54.781 73.069 32.35 2.185 80.4z" fill="#B2B2B2" fill-rule="nonzero" mask="url(#b)"></path></g></svg>