<svg width="24" height="24" viewBox="0 0 24 24" fill="none" xmlns="http://www.w3.org/2000/svg">
<path d="M8.29822 11.3418C8.29822 13.6273 10.1682 15.4973 12.4538 15.4973C14.7393 15.4973 16.6093 13.6271 16.6093 11.3416V6.15556C16.6093 3.87 14.7393 2 12.4538 2C10.1682 2 8.29822 3.87 8.29822 6.15556V11.3418Z" fill="#FDFDFD"/>
<path d="M6 11.3169C6 14.6429 8.5292 17.3894 11.7651 17.7342V20.6227H10.1313C9.75111 20.6227 9.44266 20.9309 9.44266 21.3113C9.44266 21.6918 9.75089 22 10.1313 22H14.7762C15.1567 22 15.4647 21.6918 15.4647 21.3113C15.4647 20.9309 15.1564 20.6227 14.776 20.6227H13.1424V17.7342C16.3784 17.3894 18.9075 14.643 18.9073 11.3171C18.9073 10.9369 18.5991 10.6284 18.2187 10.6284C17.8382 10.6284 17.53 10.9367 17.53 11.3171C17.53 14.116 15.2527 16.3933 12.4538 16.3933C9.65467 16.3933 7.37756 14.116 7.37733 11.3169C7.37733 10.9367 7.06911 10.6282 6.68867 10.6282C6.30844 10.6282 6 10.9364 6 11.3169Z" fill="#FDFDFD"/>
</svg>
