<svg width="76" height="24" viewBox="0 0 76 24" fill="none" xmlns="http://www.w3.org/2000/svg">
<path d="M12.2587 0C8.95218 0 6.12739 1.17535 3.77657 3.52553C1.43298 5.87622 0.257568 8.70088 0.257568 12C0.257568 15.2991 1.43298 18.131 3.77657 20.4745C6.12739 22.8252 8.95218 24 12.2587 24C15.5652 24 18.3761 22.8247 20.7264 20.4745C23.0772 18.131 24.2593 15.3063 24.2593 12C24.2593 8.69366 23.0767 5.87622 20.7264 3.52553C18.3756 1.17535 15.5508 0 12.2587 0ZM17.3425 17.0835C15.9262 18.4853 14.234 19.1862 12.2587 19.1862C10.2833 19.1862 8.57723 18.4853 7.17489 17.0835C5.76584 15.6751 5.06493 13.9825 5.06493 12.0005C5.06493 10.0186 5.76584 8.32594 7.17489 6.91748C8.57671 5.50129 10.2689 4.79371 12.2587 4.79371C14.2485 4.79371 15.9262 5.50181 17.3425 6.91748C18.7588 8.32646 19.4597 10.0258 19.4597 12.0005C19.4597 13.9752 18.7588 15.6751 17.3425 17.0835ZM64.6167 11.7029L75.1098 0.19804H54.6832V4.92728H64.3691L57.721 11.7029L68.4121 23.788H75.2815L64.6172 11.7029H64.6167ZM27.6086 0.19804V23.788H32.579V13.8623L39.7088 23.392L46.8314 13.8623V23.788H51.8089V0.19804L39.7088 15.1083L27.6086 0.19804Z" fill="#FDFDFD"/>
</svg>
