<svg width="76" height="24" viewBox="0 0 76 24" fill="none" xmlns="http://www.w3.org/2000/svg">
<path d="M12.2839 0C8.97048 0 6.13974 1.17535 3.78398 3.52553C1.43545 5.87622 0.257568 8.70088 0.257568 12C0.257568 15.2991 1.43545 18.131 3.78398 20.4745C6.13974 22.8252 8.97048 24 12.2839 24C15.5974 24 18.4142 22.8247 20.7694 20.4745C23.1252 18.131 24.3098 15.3063 24.3098 12C24.3098 8.69366 23.1247 5.87622 20.7694 3.52553C18.4137 1.17535 15.5829 0 12.2839 0ZM17.3785 17.0835C15.9592 18.4853 14.2634 19.1862 12.2839 19.1862C10.3044 19.1862 8.59473 18.4853 7.18944 17.0835C5.77743 15.6751 5.07505 13.9825 5.07505 12.0005C5.07505 10.0186 5.77743 8.32594 7.18944 6.91748C8.59422 5.50129 10.29 4.79371 12.2839 4.79371C14.2779 4.79371 15.9592 5.50181 17.3785 6.91748C18.7977 8.32646 19.5001 10.0258 19.5001 12.0005C19.5001 13.9752 18.7977 15.6751 17.3785 17.0835ZM64.7521 11.7029L75.2673 0.19804H54.7978V4.92728H64.504L57.8419 11.7029L68.5556 23.788H75.4394L64.7526 11.7029H64.7521ZM27.6662 0.19804V23.788H32.647V13.8623L39.7918 23.392L46.9294 13.8623V23.788H51.9174V0.19804L39.7918 15.1083L27.6662 0.19804Z" fill="#141314"/>
</svg>
