<svg fill="none" height="77" viewBox="0 0 122 77" width="122" xmlns="http://www.w3.org/2000/svg" class="absolute block bottom-[20px] right-[20px] tablet:w-[160px] laptop:bottom-[73px] laptop:left-[67px] laptop:w-[122px]"><path d="M89.5906 55.4173C91.9598 54.8407 94.2073 54.2484 96.3097 53.6443C89.9671 64.5761 78.8275 72.9857 71.771 75.1823C63.1613 77.8534 43.2748 77.1553 32.3155 62.5835C35.6182 62.7169 39.262 62.7169 43.2943 62.5286C44.2945 62.4815 45.3222 62.4266 46.3813 62.3482C50.9979 62.0383 56.0854 61.497 61.6905 60.6694C72.383 59.0847 81.7772 57.3196 89.5906 55.4212V55.4173Z" fill="#F2B200"></path><path d="M100.923 40.6728C95.949 42.4771 89.6731 44.3912 82.6206 46.1014C80.9496 46.5093 79.4198 46.8584 78.0979 47.1212C67.6212 49.2628 51.9707 51.0671 38.2854 51.1809C36.9361 51.2005 35.5948 51.1888 34.2847 51.1731C31.5861 51.126 28.9972 50.9926 26.581 50.7847C25.824 48.141 25.2866 45.2345 24.9964 42.0652C24.8826 40.7708 24.8277 39.5274 24.8159 38.3193C24.8081 37.676 24.8238 37.0563 24.8631 36.4326C24.8552 36.3306 24.8631 36.2247 24.8709 36.1306C24.8709 36.0757 24.8787 35.9972 24.8904 35.8835C25.1062 32.0238 25.8985 28.5603 27.1066 25.4616C34.9592 5.27297 60.3216 0.299339 60.3216 0.299339C72.5635 -1.79523 89.9791 7.2185 97.7376 23.6966C98.7574 25.85 99.6046 28.1328 100.256 30.5294C100.471 31.3414 100.652 32.1415 100.785 32.9456C101.229 35.5618 101.248 38.1467 100.919 40.6767L100.923 40.6728Z" fill="#F2B200"></path><path d="M38.2896 51.1769C36.9403 51.1965 35.5988 51.1848 34.2887 51.1691C33.8455 50.1963 33.4572 49.1883 33.1355 48.1567C32.0765 45.0619 31.4254 41.7553 31.19 38.4919C31.0018 33.9537 31.9824 29.4234 33.6141 25.2029C34.5751 22.8259 35.7282 20.5392 37.1912 18.425L37.662 18.5937C37.1795 25.8148 36.2657 32.93 36.301 40.1511C36.1402 43.9833 36.8658 47.7213 38.2817 51.1769H38.2896Z" fill="#141314"></path><path d="M55.0814 67.6395L54.9598 68.1219C50.7118 67.1295 46.7188 65.188 43.2945 62.5247C44.2947 62.4776 45.3224 62.4227 46.3815 62.3442C48.9507 64.5722 51.8924 66.3843 55.0852 67.6395H55.0814Z" fill="#141314"></path><path d="M96.3099 53.6403C94.2036 54.2443 91.96 54.8405 89.5908 55.4132C81.7774 57.3117 72.3832 59.0767 61.6908 60.6614C56.0856 61.493 50.9981 62.0303 46.3815 62.3402C45.3224 62.4147 44.2947 62.4736 43.2945 62.5206C39.2622 62.7089 35.6223 62.7089 32.3157 62.5756C16.9673 61.9166 9.18124 58.1315 5.44318 55.2877C1.48939 52.2675 0.355949 49.1138 0.0931477 46.9997C-1.33069 35.2285 13.8648 29.3292 25.4163 25.9128L27.1145 25.4499C25.9064 28.5447 25.1141 32.0082 24.8984 35.8718C24.8906 35.9855 24.8789 36.0601 24.8789 36.1189C24.871 36.2052 24.871 36.2326 24.871 36.2326V36.4209C24.8318 37.0445 24.816 37.6682 24.8239 38.3076C17.5557 40.2531 11.2799 42.885 10.0717 44.5364C11.4211 48.1136 17.8851 50.0121 26.589 50.7769C29.0052 50.9848 31.5901 51.1182 34.2927 51.1652C35.6027 51.1849 36.9441 51.1927 38.2934 51.1731C51.9787 51.0594 67.6291 49.2589 78.1059 47.1134C79.4277 46.8506 80.9576 46.5015 82.6286 46.0935C89.6811 44.3834 95.9568 42.4693 100.93 40.665C106.838 38.5233 110.917 36.5229 112.266 35.1814C111.207 34.6441 108.983 33.7458 100.856 33.1535L100.801 32.9378C100.668 32.1337 100.491 31.3335 100.272 30.5216C99.6205 28.125 98.7693 25.8382 97.7534 23.6887L98.6202 23.6025C100.782 23.4416 119.789 22.3551 121.841 33.738C123.284 41.7593 114.922 48.3019 96.3177 53.6363L96.3099 53.6403Z" fill="#8259FF"></path><path d="M24.82 38.3154C24.8122 37.6721 24.8277 37.0524 24.867 36.4287L24.8279 38.3154H24.82Z" fill="#FDFDFD"></path><path d="M27.1144 25.4579L27.1812 25.4383L25.6789 30.5257C25.1298 33.8283 24.9533 35.2914 24.8945 35.8758C25.1102 32.0162 25.9025 28.5527 27.1106 25.454L27.1144 25.4579Z" fill="#FDFDFD"></path><path d="M100.793 32.9418L99.832 29.1097L97.7454 23.6928C98.7652 25.8462 99.6124 28.1291 100.264 30.5256C100.479 31.3376 100.66 32.1377 100.793 32.9418Z" fill="#FDFDFD"></path><path d="M113.765 38.5155C116.863 36.4994 117.028 33.5184 114.961 30.6276L115.02 30.5452C117.832 31.4708 117.832 35.4167 115.883 37.2053C115.275 37.8055 114.553 38.2448 113.816 38.6017L113.769 38.5155H113.765Z" fill="#141314"></path><path d="M22.1682 57.9666C16.3748 56.7114 6.33751 54.4561 4.37632 48.0586L4.47438 48.0312C5.36476 49.5139 6.71394 50.5964 8.08286 51.581C10.8403 53.6049 13.9704 55.1738 17.2181 56.2957C18.6458 56.8213 20.7129 57.4488 22.1956 57.8685L22.1722 57.9666H22.1682Z" fill="#141314"></path><path d="M30.8606 58.6218C44.1418 58.5355 57.8622 56.033 71.0531 54.7034L71.0688 54.8014C64.5224 56.5037 57.8151 57.449 51.0804 57.9707C44.428 58.4453 37.3364 59.1043 30.8606 58.6218Z" fill="#141314"></path></svg>