<svg fill="none" height="175" viewBox="0 0 200 175" width="200" xmlns="http://www.w3.org/2000/svg" class="absolute hidden z-0 laptop:block laptop:right-[125px] laptop:bottom-[140px] laptop:w-[180px] desktop:right-[213px]"><path d="M42.3779 32.0091C42.3779 32.0091 42.8848 32.9175 42.3578 33.6201C41.8308 34.3177 34.6892 40.887 34.6892 40.887L31.1058 42.6235C31.1058 42.6235 27.066 40.5107 26.4437 39.8984C25.8214 39.2861 25.0636 37.0729 25.5655 36.4004C26.0673 35.7279 33.6051 28.3856 34.107 27.9691C34.6088 27.5525 35.7381 26.6442 36.9476 27.1159L42.3828 32.0141L42.3779 32.0091Z" fill="#00ADAD"></path><path d="M41.6102 32.6864C41.4998 32.5861 35.4974 29.2186 35.4974 29.2186L36.2602 27.8636C36.2602 27.8636 38.6342 25.5148 38.8901 25.2839C39.1461 25.0581 39.5826 24.6316 40.4408 25.2037C41.304 25.7758 44.8071 27.6628 44.8071 27.6628C44.8071 27.6628 45.5398 28.3755 45.1031 29.2035C44.6615 30.0316 41.6053 32.6864 41.6053 32.6864H41.6102Z" fill="#8259FF"></path><path d="M30.2931 42.1716C29.1589 41.5894 26.8703 40.385 26.4086 39.9283C26.1827 39.7024 25.9419 39.2557 25.7563 38.7438C25.7563 38.7438 24.5718 39.8279 24.3359 40.3147C23.6885 42.0863 25.6508 43.5267 26.4287 44.0887C27.2066 44.6508 28.4561 44.2041 28.7221 43.9181C28.9831 43.632 30.298 42.1716 30.298 42.1716H30.2931Z" fill="#8259FF"></path><path d="M39.2015 34.2873C37.9569 33.6599 36.6921 33.0176 35.588 32.1544C35.3471 31.9285 34.6997 31.3363 34.7097 31.0402C36.1651 32.1544 37.7611 33.2585 39.2015 34.2873Z" fill="#8259FF"></path><path d="M34.1527 30.1878C34.0272 29.8967 33.8665 29.5906 33.8564 29.2795C33.8715 29.1992 33.947 28.9582 34.0774 28.9683C34.2531 29.169 34.2781 29.3245 34.2279 29.5604L34.1929 30.1777L34.1527 30.1878Z" fill="#8259FF"></path><path d="M44.0691 28.6264C43.1708 28.1647 42.2775 27.698 41.3892 27.2212L40.0593 26.5287C39.6328 26.3179 39.1861 26.067 38.7194 26.2727L38.6942 26.2426C39.5574 25.4898 40.7718 26.4885 41.5397 26.9502C42.3527 27.5072 43.3666 28.0292 44.0642 28.6264H44.0691Z" fill="#8259FF"></path><path d="M42.7495 29.977C42.8348 29.7863 42.8951 29.5604 43.0306 29.4249C43.0858 29.3998 43.2314 29.3496 43.3217 29.4249C43.3719 29.6357 43.3217 29.7461 43.146 29.8063C43.0456 29.8515 42.8149 30.0372 42.7446 29.977H42.7495Z" fill="#8259FF"></path><path d="M42.1272 29.5095C42.2326 29.3088 42.3178 29.0728 42.4683 28.9273C42.5286 28.9022 42.6791 28.847 42.7744 28.9273C42.8146 29.1481 42.7394 29.2636 42.5588 29.3288C42.4483 29.379 42.1925 29.5748 42.1272 29.5095Z" fill="#8259FF"></path><path d="M41.6405 29.1934C41.7459 29.0177 41.8262 28.8019 41.9767 28.6764C42.037 28.6614 42.1824 28.6263 42.2627 28.7116C42.2928 28.9274 42.2276 29.0278 42.052 29.0729C41.9466 29.1081 41.7007 29.2636 41.6405 29.1934Z" fill="#8259FF"></path><path d="M40.8825 28.7972C40.9779 28.6416 41.0633 28.4108 41.1888 28.3205C41.244 28.3104 41.3895 28.2854 41.4748 28.3657C41.52 28.5664 41.4447 28.6667 41.2741 28.7019C41.1737 28.732 40.9277 28.8725 40.8825 28.7972Z" fill="#8259FF"></path><path d="M40.2552 28.491C40.3505 28.3003 40.4208 28.0744 40.5664 27.9339C40.6266 27.9088 40.7723 27.8586 40.8627 27.9389C40.9078 28.1547 40.8474 28.2651 40.6718 28.3254C40.5664 28.3705 40.3256 28.5563 40.2603 28.491H40.2552Z" fill="#8259FF"></path><path d="M39.7334 28.1648C39.7937 27.9691 39.8588 27.7182 40.0094 27.5827C40.0796 27.5526 40.16 27.5375 40.2804 27.5777C40.3507 27.668 40.2955 27.8136 40.2804 27.8638C40.2553 27.929 40.1751 27.934 40.1199 27.9692L39.7685 28.1849L39.7383 28.1599L39.7334 28.1648Z" fill="#8259FF"></path><path d="M39.1714 27.8588C39.2567 27.6731 39.3068 27.4573 39.4373 27.3217C39.4925 27.3017 39.6382 27.2515 39.7235 27.3318C39.7787 27.5376 39.7285 27.6429 39.5578 27.7032C39.4625 27.7433 39.2315 27.924 39.1662 27.8588H39.1714Z" fill="#8259FF"></path><path d="M38.599 27.6027L38.86 27.1962C38.9002 27.1309 38.9204 27.0407 38.9906 27.0055C39.0458 26.9804 39.2112 26.9001 39.3016 26.9704C39.3317 27.1008 39.3117 27.1912 39.2766 27.2665C39.116 27.4472 38.8499 27.5425 38.624 27.6329L38.599 27.6027Z" fill="#8259FF"></path><path d="M59.8631 13.495C62.2118 13.4649 64.5554 13.3495 66.8941 13.1538C67.7723 13.0785 68.6908 12.9781 69.4235 12.4913C70.1512 12.0095 70.613 11.2066 70.894 10.3785C71.2504 9.31956 71.3557 8.19548 71.441 7.08134C71.6267 4.72259 71.7573 2.36378 71.8326 0C72.2742 3.58832 72.7159 7.19174 73.5791 10.7048C73.7146 11.2518 73.875 11.8239 74.2865 12.2053C74.6981 12.5868 75.2853 12.7072 75.8423 12.8025C78.8836 13.3345 81.9501 13.7359 85.0315 14.0019C83.0843 14.0672 81.1371 14.1324 79.1949 14.273C77.8599 14.3733 76.5099 14.5139 75.2753 15.0358C74.4874 15.367 73.7396 15.874 73.3181 16.6167C73.0119 17.1537 72.8913 17.781 72.791 18.3882C72.2841 21.3542 71.9478 24.3454 71.7873 27.3515C71.2553 25.7355 70.7836 19.6681 70.5176 18.3582C70.2517 17.0483 69.6193 15.7434 68.4901 15.0258C67.6821 14.5139 66.7134 14.3533 65.7649 14.2178C63.5818 13.9117 61.3838 13.7059 59.1806 13.6005L59.858 13.5001L59.8631 13.495Z" fill="#FFDB75"></path><path d="M25.3999 41.5501C25.3999 41.5501 16.7277 50.8897 9.0592 55.9435C1.38571 60.9972 15.3173 56.2647 15.3173 56.2647L27.2566 43.5976" fill="#8259FF"></path><path d="M114.747 14.8855C114.747 14.8855 47.7179 11.9295 39.1761 70.0861C30.6343 128.243 82.8789 145.331 103.576 144.016C124.278 142.701 169.948 118.06 168.964 81.2577C167.981 44.4556 138.737 16.5267 114.747 14.8855Z" fill="#80E0DB"></path><path d="M46.5884 47.7528C46.5884 47.7528 42.8194 55.0751 41.6851 59.1001C41.6851 59.1001 8.63711 59.878 8.94827 67.7875C9.93193 92.7604 97.9948 103.275 125.266 104.258C152.538 105.242 230.413 100.971 168.969 81.2575L168.307 73.3732C168.307 73.3732 200.185 78.6277 199.197 95.0589C198.213 111.49 165.025 118.06 93.0666 111.49C21.1087 104.921 -1.54074 82.5173 0.080293 68.7761C1.39519 57.6045 13.2594 49.414 46.5935 47.7578L46.5884 47.7528Z" fill="#8259FF"></path><path d="M188.196 99.987C190.103 99.2292 191.875 98.1852 193.084 96.5441C193.822 95.5103 194.314 94.3009 194.334 93.0262C194.404 91.0388 194.158 89.3375 193.365 87.3551L193.496 87.2447C197.832 90.0903 196.251 96.3234 192.241 98.6671C190.986 99.4199 189.621 99.8816 188.241 100.153L188.196 99.987Z" fill="#8259FF"></path><path d="M28.0445 95.3952C23.3622 93.2272 18.509 90.7229 14.3234 87.7268C11.232 85.5487 8.19576 83.225 5.86209 80.1687C4.08048 77.7447 2.3942 74.8389 2.45442 71.7474L2.62498 71.7424C4.02016 75.953 7.18188 79.17 10.1429 82.3116C14.2331 86.5925 19.2268 89.9199 24.2504 93.0014L28.1198 95.2447L28.0445 95.3952Z" fill="#8259FF"></path><path d="M42.2377 99.9871C56.295 103.109 70.5732 105.207 84.8965 106.617C90.6027 107.194 96.3693 107.841 102.06 108.549C104.921 108.895 107.787 109.227 110.647 109.673L110.637 109.844C99.0642 110.055 87.5363 108.89 76.1238 107.053C70.4176 106.17 64.7215 105.196 59.0554 104.082C53.3993 102.928 47.7533 101.704 42.1926 100.148L42.2377 99.9821V99.9871Z" fill="#8259FF"></path><path d="M30.5184 52.9622C27.7883 53.7351 25.0282 54.2921 22.273 54.8994C19.5378 55.5367 16.7623 55.9634 14.1677 57.0976C17.7811 54.1115 25.8611 52.9823 30.5184 52.9622Z" fill="#8259FF"></path><path d="M165.546 110.983C165.546 110.983 150.009 112.328 139.504 108.81L114.597 113.131C114.597 113.131 153.366 118.3 164.342 117.523L165.541 110.978L165.546 110.983Z" fill="#8259FF"></path><path d="M192.271 112.865L186.685 119.108L187.398 120.809L193.546 121.507C193.546 121.507 194.268 121.838 195.538 120.674C196.808 119.51 199.794 115.916 199.794 115.916C199.794 115.916 200.21 115.741 199.859 114.912C199.513 114.079 199.242 113.557 198.826 113.492C198.404 113.422 192.266 112.87 192.266 112.87L192.271 112.865Z" fill="#8259FF"></path><path d="M196.512 115.505C196.14 115.475 195.443 115.615 195.207 115.299C195.438 115.204 195.649 115.229 195.87 115.304C196.055 115.369 196.381 115.394 196.507 115.5L196.512 115.505Z" fill="#8259FF"></path><path d="M195.825 116.464C195.468 116.428 194.791 116.544 194.585 116.228C194.811 116.142 195.006 116.167 195.217 116.248C195.398 116.318 195.694 116.348 195.819 116.459L195.825 116.464Z" fill="#8259FF"></path><path d="M194.906 117.538C194.721 117.487 194.274 117.427 194.098 117.372C194.043 117.337 193.862 117.267 193.867 117.176C193.973 117.131 194.068 117.136 194.163 117.136C194.294 117.161 194.861 117.422 194.906 117.533V117.538Z" fill="#8259FF"></path><path d="M194.128 118.592C193.727 118.507 193.054 118.501 192.823 118.15C193.074 118.085 193.295 118.16 193.506 118.281C193.697 118.386 193.987 118.461 194.128 118.592Z" fill="#8259FF"></path><path d="M197.149 116.599C196.552 117.492 195.855 118.29 195.142 119.103C194.429 119.997 193.134 120.112 192.111 119.811V119.786C193.149 119.806 194.249 119.756 195.006 118.963C195.739 118.23 196.487 117.352 197.149 116.599Z" fill="#8259FF"></path><path d="M164.994 118.777C163.93 115.59 166.58 113.638 168.688 111.274C170.796 108.91 171.528 108.333 171.91 108.278C172.291 108.218 190.835 109.513 192.622 110.175C194.408 110.842 194.9 113.106 194.9 113.106C193.505 112.975 192.271 112.865 192.271 112.865L186.685 119.108L187.398 120.809L190.564 121.166C190.564 121.166 190.087 121.868 188.963 123.113C187.834 124.358 185.355 123.816 185.355 123.816C185.355 123.816 175.584 122.586 171.809 122.25C168.03 121.914 166.068 121.959 164.999 118.772L164.994 118.777Z" fill="#00ADAD"></path><path d="M188.191 122.712C187.182 123.184 185.797 122.792 185.285 121.769C184.788 120.755 184.884 119.575 184.909 118.481C185.039 116.173 187.177 114.652 188.607 113.091C189.139 112.58 189.646 112.053 190.198 111.556C190.705 111.104 191.699 110.637 192.241 111.174C190.826 110.472 189.702 112.469 188.778 113.262C187.885 114.195 186.51 115.415 185.807 116.489C184.894 117.688 184.974 119.254 185.084 120.68C185.195 122.351 186.68 123.239 188.191 122.707V122.712Z" fill="#8259FF"></path><path d="M172.251 109.894C170.57 111.671 168.763 113.392 167.428 115.45C166.651 117.151 166.731 119.259 167.76 120.855L167.739 120.87C166.49 119.375 166.364 117.056 167.243 115.345C168.643 113.327 170.495 111.536 172.256 109.899L172.251 109.894Z" fill="#8259FF"></path><path d="M162.089 116.664C161.708 115.68 161.667 113.808 162.661 111.68C163.655 109.548 165.998 109.844 165.998 109.844L169.526 110.35C169.275 110.626 168.999 110.928 168.688 111.274C166.58 113.638 163.93 115.59 164.994 118.777C165.029 118.877 165.065 118.962 165.1 119.058V119.073C165.1 119.073 164.167 118.887 163.539 118.511C162.912 118.134 162.47 117.648 162.089 116.659V116.664Z" fill="#80E0DB"></path><path d="M143.74 108.228C146.19 108.338 151.113 108.614 153.562 108.775C156.849 108.905 160.111 109.176 163.318 110.025L163.308 110.125C160.006 110.376 156.749 110.05 153.487 109.578C151.053 109.292 146.159 108.665 143.73 108.328L143.74 108.228Z" fill="#8259FF"></path><path d="M143.254 144.282C145.703 144.252 148.152 144.132 150.591 143.926C151.509 143.846 152.463 143.745 153.231 143.238C153.993 142.736 154.47 141.898 154.761 141.03C155.133 139.926 155.243 138.752 155.333 137.587C155.529 135.128 155.664 132.664 155.745 130.195C156.206 133.944 156.668 137.698 157.566 141.366C157.707 141.933 157.878 142.536 158.304 142.932C158.736 143.334 159.348 143.454 159.93 143.554C163.107 144.112 166.304 144.528 169.516 144.804C167.483 144.869 165.456 144.94 163.428 145.09C162.038 145.196 160.623 145.341 159.338 145.883C158.515 146.229 157.737 146.756 157.296 147.534C156.974 148.096 156.854 148.749 156.744 149.386C156.217 152.478 155.865 155.604 155.695 158.736C155.137 157.05 154.646 150.721 154.37 149.351C154.094 147.986 153.431 146.621 152.257 145.873C151.414 145.341 150.4 145.17 149.416 145.03C147.138 144.709 144.844 144.493 142.546 144.382L143.254 144.277V144.282Z" fill="#FFDB75"></path><path d="M106.07 137.145C110.692 137.336 122.029 139.685 124.93 151.022C127.831 162.359 118.762 173.33 111.053 174.419C103.345 175.508 90.8284 171.337 88.3843 161.812C85.4735 150.495 90.5622 143.855 95.7314 140.322C100.901 136.784 104.002 137.065 106.07 137.151V137.145Z" fill="#F2B200"></path><path d="M93.9148 146.721C94.3866 145.06 96.3688 143.454 98.1103 144.393C98.6674 144.719 99.109 145.371 98.9886 145.998L98.8981 146.024C98.5067 145.582 98.1204 145.381 97.6989 145.236C96.7855 144.834 95.8721 144.93 95.0641 145.587C94.6475 145.893 94.3012 146.31 94.0001 146.761L93.9148 146.721Z" fill="#8259FF"></path><path d="M91.325 150.134C91.0942 149.883 90.763 149.888 90.6225 149.973C90.5422 150.023 90.5472 150.154 90.4568 150.144C90.3615 150.149 90.231 150.124 89.9449 150.214C89.6287 150.164 89.679 149.607 89.8496 149.431C90.0102 149.2 90.3363 149.195 90.5872 149.225C91.1141 149.275 91.4404 149.727 91.4204 150.109L91.3299 150.139L91.325 150.134Z" fill="#8259FF"></path><path d="M104.625 155.273C103.661 155.479 102.949 156.262 102.758 157.07C102.668 157.486 102.788 157.893 102.828 158.289C102.883 158.706 102.989 159.112 103.18 159.624L103.119 159.695C100.479 158.696 102.251 154.937 104.62 155.178L104.625 155.273Z" fill="#8259FF"></path><path d="M108.424 161.576C108.153 161.235 107.717 161.18 107.476 161.275C107.34 161.331 107.3 161.486 107.174 161.506C107.039 161.546 106.883 161.571 106.587 161.717L106.497 161.697C106.286 161.411 106.366 161.049 106.557 160.803C106.753 160.537 107.124 160.502 107.425 160.523C108.058 160.553 108.494 161.064 108.519 161.541L108.429 161.571L108.424 161.576Z" fill="#8259FF"></path><path d="M114.838 145.291C112.79 145.135 112.499 147.91 113.257 149.271C113.603 149.637 113.874 149.983 114.1 150.445C114.175 150.565 114.25 150.656 114.416 150.706L114.436 150.796C114.27 150.907 114.015 150.871 113.839 150.786C113.523 150.636 113.302 150.385 113.021 150.234C112.895 150.159 112.74 150.063 112.574 149.918C112.223 149.587 112.107 149.12 112.092 148.764C112.082 147.705 112.158 146.57 112.926 145.742C113.427 145.236 114.205 144.945 114.863 145.206L114.838 145.296V145.291Z" fill="#8259FF"></path><path d="M113.196 152.447C113.076 152.508 113.006 152.618 113.011 152.733C113.011 152.779 113.076 152.884 113.051 152.819C113.006 152.713 112.86 152.643 112.629 152.533C112.434 152.347 112.449 152.171 112.499 152.061C112.559 151.935 112.725 151.996 112.82 152.011C113.006 152.021 113.352 152.267 113.196 152.452V152.447Z" fill="#8259FF"></path><path d="M105.398 154.992C106.331 154.671 108.303 155.263 107.761 156.583L107.671 156.613C107.064 156.352 106.923 156.247 106.592 155.76C106.286 155.464 105.889 155.198 105.398 155.082V154.987V154.992Z" fill="#8259FF"></path><path d="M120.187 164.533C120.062 163.594 118.993 163.463 118.215 163.579C117.362 163.649 116.579 163.935 116.077 164.538C115.44 165.356 114.908 166.811 114.672 167.845C114.642 168.206 114.697 168.608 114.983 168.939L114.933 169.019C113.889 168.723 113.839 167.268 114.115 166.429C114.446 165.12 115.425 163.689 116.81 163.278C117.979 162.962 120.218 162.896 120.283 164.527H120.187V164.533Z" fill="#8259FF"></path><path d="M120.845 161.933C120.509 161.993 120.233 162.068 119.952 162.224C119.867 162.279 119.806 162.364 119.716 162.349L119.997 161.667C119.967 161.697 119.877 161.817 119.957 162.118C119.907 162.46 119.325 162.404 119.154 162.118L118.908 161.782L119.435 161.436C119.55 161.361 119.701 161.396 119.831 161.416C120.213 161.456 120.594 161.586 120.87 161.837L120.845 161.928V161.933Z" fill="#8259FF"></path><path d="M104.57 169.606C104.374 167.94 102.953 168.005 101.654 168.151C101.247 168.171 100.906 168.141 100.464 168.397L100.379 168.352C100.605 166.585 103.571 167.052 104.374 168.146C104.695 168.567 104.725 169.109 104.66 169.601L104.564 169.606H104.57Z" fill="#8259FF"></path><path d="M97.8744 165.587C97.5733 165.556 97.3123 165.667 97.1015 165.843C97.0062 165.923 96.9962 166.073 96.8908 166.083C96.7804 166.108 96.65 166.104 96.3539 166.164C96.0477 166.078 96.1128 165.572 96.2333 165.411C96.3588 165.195 96.63 165.175 96.8307 165.14C97.2222 165.065 97.6839 165.19 97.9197 165.506L97.8695 165.587H97.8744Z" fill="#8259FF"></path><path d="M100.424 140.593C100.248 140.649 99.9974 140.689 99.9322 140.844C99.9422 140.89 100.048 140.965 100.002 140.905C99.9724 140.88 99.8117 140.739 99.631 140.965C99.3449 141.201 99.0741 140.724 99.1644 140.478C99.2146 140.232 99.4855 140.152 99.7013 140.132C100.043 140.102 100.268 140.282 100.454 140.508L100.424 140.599V140.593Z" fill="#8259FF"></path><path d="M94.9434 162.078C94.7527 162.078 94.6072 162.169 94.5018 162.289C94.4566 162.339 94.4818 162.465 94.4266 162.42C94.3663 162.389 94.281 162.314 94.01 162.269C93.744 162.144 93.7791 161.777 93.8946 161.647C94 161.491 94.2056 161.541 94.3511 161.556C94.6271 161.571 94.9234 161.742 95.0037 162.008L94.9434 162.083V162.078Z" fill="#8259FF"></path><path d="M94.713 158.786C94.8937 158.5 95.2701 158.354 95.6113 158.379C95.787 158.384 96.0278 158.364 96.1482 158.54C96.2687 158.685 96.3591 159.097 96.0831 159.237C95.797 159.253 95.6766 159.288 95.5812 159.288C95.4909 159.303 95.4858 159.167 95.4055 159.097C95.3302 159.037 95.2399 158.976 95.1345 158.931C95.0241 158.881 94.9036 158.861 94.7581 158.861L94.7078 158.781L94.713 158.786Z" fill="#8259FF"></path></svg>