<svg width="24" height="24" viewBox="0 0 24 24" fill="none" xmlns="http://www.w3.org/2000/svg">
<path d="M14.3111 14.75C14.2766 14.4397 14.1732 14.2155 13.9663 14.0086C13.5783 13.6035 12.8973 13.3362 12.0956 13.3362C11.2939 13.3362 10.6128 13.5948 10.2249 14.0086C10.0266 14.2241 9.91456 14.4397 9.88007 14.75C9.81111 15.3535 9.85421 15.8707 9.92318 16.7069C9.99214 17.5 10.1215 18.5603 10.2852 19.6293C10.4059 20.3966 10.5008 20.8103 10.587 21.1034C10.7335 21.5862 11.2594 22 12.0956 22C12.9318 22 13.4663 21.5776 13.6042 21.1034C13.6904 20.8103 13.7852 20.3966 13.9059 19.6293C14.0697 18.5517 14.199 17.5 14.268 16.7069C14.3456 15.8707 14.3801 15.3535 14.3111 14.75Z" fill="#FDFDFD"/>
<path d="M14.2163 10.3535C14.2163 11.5259 13.268 12.4741 12.0956 12.4741C10.9232 12.4741 9.97489 11.5259 9.97489 10.3535C9.97489 9.18105 10.9232 8.23277 12.0956 8.23277C13.268 8.23277 14.2163 9.18967 14.2163 10.3535Z" fill="#FDFDFD"/>
<path d="M12.0697 2.00001C7.12146 2.01725 3.06974 6.03449 3.00077 10.9828C2.94905 14.9914 5.50939 18.4224 9.08697 19.681C9.17318 19.7155 9.25938 19.6379 9.25076 19.5517C9.20766 19.2414 9.15594 18.931 9.12145 18.6207C9.10421 18.5086 9.03525 18.4224 8.94042 18.3707C6.11284 17.1379 4.1387 14.3017 4.17318 11.0172C4.21629 6.70691 7.73352 3.19829 12.0352 3.16381C16.4404 3.12932 20.0352 6.69829 20.0352 11.0948C20.0352 14.3448 18.0697 17.1379 15.268 18.3707C15.1646 18.4138 15.0956 18.5086 15.087 18.6207C15.0439 18.931 15.0008 19.2414 14.9577 19.5517C14.9404 19.6466 15.0352 19.7155 15.1214 19.681C18.6645 18.4397 21.2077 15.0604 21.2077 11.0948C21.1904 6.0776 17.0956 1.99139 12.0697 2.00001Z" fill="#FDFDFD"/>
<path d="M11.8628 5.01725C8.6387 5.13794 6.05249 7.80173 6.00939 11.0259C5.98353 13.1466 7.04387 15.0259 8.67318 16.1379C8.75077 16.1897 8.86283 16.1293 8.86283 16.0345C8.83697 15.6638 8.83697 15.3362 8.85421 14.9914C8.86283 14.8793 8.81973 14.7759 8.73352 14.6983C7.74215 13.7672 7.1387 12.4397 7.17318 10.9741C7.24215 8.38794 9.31973 6.28449 11.9059 6.18104C14.7163 6.06897 17.0266 8.32759 17.0266 11.1035C17.0266 12.5172 16.4232 13.7931 15.4663 14.6983C15.3887 14.7759 15.3456 14.8793 15.3456 14.9914C15.3628 15.3276 15.3542 15.6552 15.337 16.0259C15.3283 16.1207 15.4404 16.1897 15.5266 16.1293C17.1301 15.0345 18.1904 13.181 18.1904 11.0948C18.199 7.6638 15.3283 4.87932 11.8628 5.01725Z" fill="#FDFDFD"/>
</svg>
