<svg width="24" height="24" viewBox="0 0 24 24" fill="none" xmlns="http://www.w3.org/2000/svg">
<path d="M8.36363 17.8182C8.36363 18.4242 8.15151 18.9394 7.72727 19.3636C7.30303 19.7879 6.78788 20 6.18182 20C5.57576 20 5.06061 19.7879 4.63636 19.3636C4.21212 18.9394 4 18.4242 4 17.8182C4 17.2121 4.21212 16.697 4.63636 16.2727C5.06061 15.8485 5.57576 15.6364 6.18182 15.6364C6.78788 15.6364 7.30303 15.8485 7.72727 16.2727C8.15151 16.697 8.36363 17.2121 8.36363 17.8182ZM14.1818 19.2159C14.197 19.428 14.1326 19.6098 13.9886 19.7614C13.8523 19.9205 13.6742 20 13.4545 20H11.9204C11.7311 20 11.5682 19.9375 11.4318 19.8125C11.2954 19.6875 11.2197 19.5303 11.2045 19.3409C11.0379 17.6061 10.339 16.1231 9.10795 14.892C7.87689 13.661 6.39394 12.9621 4.65909 12.7955C4.4697 12.7803 4.3125 12.7045 4.1875 12.5682C4.0625 12.4318 4 12.2689 4 12.0795V10.5455C4 10.3258 4.07955 10.1477 4.23864 10.0114C4.36742 9.88258 4.5303 9.81818 4.72727 9.81818H4.78409C5.99621 9.91667 7.1553 10.2216 8.26136 10.733C9.36742 11.2443 10.3485 11.9318 11.2045 12.7955C12.0682 13.6515 12.7557 14.6326 13.267 15.7386C13.7784 16.8447 14.0833 18.0038 14.1818 19.2159ZM20 19.2386C20.0151 19.4432 19.947 19.6212 19.7954 19.7727C19.6591 19.9242 19.4848 20 19.2727 20H17.6477C17.4507 20 17.2822 19.9337 17.142 19.8011C17.0019 19.6686 16.928 19.5076 16.9204 19.3182C16.8295 17.6894 16.447 16.142 15.7727 14.6761C15.0985 13.2102 14.2216 11.9375 13.142 10.858C12.0625 9.77841 10.7898 8.90151 9.32386 8.22727C7.85795 7.55303 6.3106 7.16667 4.68182 7.06818C4.49242 7.06061 4.33144 6.98674 4.19886 6.84659C4.06629 6.70644 4 6.54167 4 6.35227V4.72727C4 4.51515 4.07576 4.34091 4.22727 4.20454C4.36364 4.06818 4.5303 4 4.72727 4H4.76136C6.74621 4.09848 8.64583 4.55303 10.4602 5.36364C12.2746 6.17424 13.8864 7.28788 15.2954 8.70455C16.7121 10.1136 17.8257 11.7254 18.6363 13.5398C19.447 15.3542 19.9015 17.2538 20 19.2386Z" fill="#FDFDFD"/>
</svg>
