<svg fill="none" height="73" viewBox="0 0 318 73" width="318" xmlns="http://www.w3.org/2000/svg" class="absolute hidden z-0 tablet:block tablet:left-[16px] tablet:top-[13px] tablet:w-[280px] laptop:left-[213px] laptop:top-[13px] laptop:w-[318px]"><path clip-rule="evenodd" d="M5.38783 7.28328C-4.30912 11.2722 5.36955 -5.93622 7.01226 3.87457L5.38783 7.28328Z" fill="white" fill-rule="evenodd"></path><path clip-rule="evenodd" d="M119.624 21.5159C124.254 26.1459 115.722 31.7681 114.201 23.7647C115.127 22.508 116.317 21.3174 117.905 20.7883L119.624 21.5159Z" fill="white" fill-rule="evenodd"></path><path clip-rule="evenodd" d="M236.592 27.3225C236.971 25.9964 237.066 24.9544 237.918 23.9124C239.434 23.9124 241.613 24.4808 242.939 25.2386C242.939 26.7542 242.276 29.1223 241.518 30.4485C240.571 30.4485 239.718 29.8802 238.866 29.8802L236.592 27.3225Z" fill="white" fill-rule="evenodd"></path><path clip-rule="evenodd" d="M316.717 35.7483C313.402 31.8645 308.571 38.1165 314.633 39.8215C315.675 39.1585 316.622 38.3059 317.191 37.1692L316.717 35.7483Z" fill="white" fill-rule="evenodd"></path><path clip-rule="evenodd" d="M41.3988 29.4248C38.6688 19.3611 55.1026 29.9601 44.6642 31.0842L41.3988 29.4248Z" fill="white" fill-rule="evenodd"></path><path clip-rule="evenodd" d="M156.554 15.605C155.796 15.3208 155.322 14.9419 154.565 14.8472C153.996 15.5103 153.428 16.7417 153.238 17.5943C153.901 18.1626 155.228 18.8257 156.08 18.9204C156.459 18.5415 156.459 17.8784 156.838 17.4995L156.554 15.5103L156.554 15.605Z" fill="white" fill-rule="evenodd"></path><path clip-rule="evenodd" d="M283.393 11.5613C286.14 7.20389 278.657 4.45685 278.941 10.8035C279.888 11.5613 281.025 12.3191 282.256 12.4138L283.393 11.5613Z" fill="white" fill-rule="evenodd"></path><path d="M168.798 51.7716C172.233 51.7716 175.739 51.9862 179.175 52.2722C180.507 52.4153 181.839 52.5583 182.891 53.2735C183.942 53.9888 184.643 55.2046 185.064 56.492C185.625 58.0655 185.765 59.782 185.905 61.4985C186.186 65.0746 186.396 68.6507 186.466 72.1553C187.097 66.7196 187.798 61.284 189.06 55.9914C189.271 55.1331 189.481 54.2749 190.112 53.7027C190.743 53.1305 191.584 52.9159 192.426 52.7729C196.913 51.9862 201.47 51.3425 206.028 50.9849C203.153 50.9133 200.278 50.7703 197.404 50.5557C195.441 50.4127 193.407 50.1981 191.584 49.4114C190.393 48.9107 189.341 48.124 188.71 47.0512C188.289 46.2644 188.079 45.2631 187.939 44.4049C187.167 39.899 186.677 35.3932 186.466 30.8873C185.695 33.319 184.994 42.4738 184.573 44.4764C184.153 46.479 183.241 48.4101 181.558 49.4829C180.366 50.2696 178.894 50.4842 177.562 50.6988C174.337 51.1279 171.112 51.4855 167.816 51.6285L168.798 51.7716Z" fill="white"></path></svg>