<svg fill="none" height="209" viewBox="0 0 157 209" width="157" xmlns="http://www.w3.org/2000/svg" class="absolute hidden tablet:block tablet:top-[20px] tablet:right-[-116px] tablet:w-[280px] laptop:right-[60px] laptop:top-[20px] laptop:w-[157px]"><path clip-rule="evenodd" d="M124.309 180.662C116.462 173.251 130.923 164.252 133.501 177.062C131.932 179.074 129.914 180.98 127.224 181.827L124.309 180.662Z" fill="white" fill-rule="evenodd"></path><path clip-rule="evenodd" d="M72.0362 199.527C78.4907 207.299 63.968 214.157 62.9999 201.813C64.7749 200.137 66.8726 198.46 69.4544 198.003L72.0362 199.375V199.527Z" fill="white" fill-rule="evenodd"></path><path clip-rule="evenodd" d="M150.265 41.8536C136.736 38.6626 159.18 27.7204 154.197 39.41L150.265 41.8536Z" fill="white" fill-rule="evenodd"></path><path d="M101.305 110.287C91.9158 110.287 82.403 109.707 73.0138 109.012C69.431 108.78 65.8483 108.317 62.8833 106.462C59.9183 104.607 58.0651 101.594 56.9533 98.4639C55.4707 94.407 55.1001 90.2341 54.7295 85.9453C53.9882 77.02 53.494 68.0947 53.1234 59.1694C51.3938 72.7312 49.5407 86.2931 46.0815 99.6231C45.5873 101.709 44.8461 103.912 43.24 105.303C41.634 106.694 39.1631 107.157 36.9394 107.505C24.7087 109.476 12.3544 110.983 0.000144958 112.026C7.78333 112.258 15.6901 112.489 23.4732 113.069C28.7856 113.417 34.345 113.996 39.2867 115.967C42.4988 117.242 45.4638 119.096 47.1934 121.878C48.4288 123.965 48.923 126.283 49.2936 128.601C51.3938 139.845 52.6292 151.088 53.3705 162.448C55.4707 156.305 57.4474 133.47 58.4357 128.485C59.4241 123.501 62.0185 118.633 66.5896 115.851C69.8017 113.88 73.755 113.301 77.5848 112.837C86.3563 111.678 95.2514 110.867 104.146 110.519L101.429 110.171L101.305 110.287Z" fill="white"></path><path clip-rule="evenodd" d="M42.4735 3.15502C47.0964 22.2888 19.2683 2.13729 36.9441 0L42.4735 3.15502Z" fill="white" fill-rule="evenodd"></path></svg>