<svg fill="none" height="202" viewBox="0 0 81 202" width="81" xmlns="http://www.w3.org/2000/svg" class="absolute z-0 hidden w-[300px] tablet:left-[-310px] tablet:top-[-170px] tablet:block tablet:w-[600px] laptop:left-[60px] laptop:top-[62px] laptop:w-[81px]"><path clip-rule="evenodd" d="M18.9045 7.82238C17.775 6.90799 16.6454 6.45079 16 5.07921C16.6454 3.70762 18.2591 1.7264 19.7113 0.812012C21.325 1.42161 23.4227 3.09801 24.3909 4.4696C23.9068 5.38399 22.9386 5.99355 22.6159 6.75554L18.9045 7.82238Z" fill="white" fill-rule="evenodd"></path><path clip-rule="evenodd" d="M6.03007 88.8915C1.51191 84.7767 -3.81303 92.549 3.9324 93.7682C5.2233 92.8538 6.19145 91.7871 6.67554 90.4155L5.86873 88.8915H6.03007Z" fill="white" fill-rule="evenodd"></path><path clip-rule="evenodd" d="M3.80694 199.087C9.45464 205.336 17.6842 195.277 7.35694 192.534C5.58195 193.601 3.96825 194.973 3.00007 196.801L3.80694 199.087Z" fill="white" fill-rule="evenodd"></path><path clip-rule="evenodd" d="M80.7233 100.174C81.1776 101.884 80.9959 101.193 80.7233 102.903C79.088 103.929 76.0337 104.148 74.0631 102.903C72.0925 101.658 71.811 100.174 72.0924 98.3717C72.3739 96.5691 74.3446 96.2007 76.0337 96.2007C77.7227 96.2007 79.724 98.4572 79.724 98.4572L80.7233 100.174Z" fill="white" fill-rule="evenodd"></path><path d="M63.4194 151.661C57.5672 151.661 51.5955 151.316 45.7432 150.856C43.474 150.626 41.2048 150.395 39.4133 149.245C37.6218 148.094 36.4274 146.138 35.7108 144.067C34.7553 141.535 34.5165 138.774 34.2776 136.012C33.7999 130.259 33.4416 124.505 33.3221 118.867C32.2472 127.612 31.0529 136.357 28.9031 144.872C28.5448 146.253 28.1865 147.634 27.1116 148.554C26.0367 149.475 24.6035 149.82 23.1703 150.05C15.5265 151.316 7.76329 152.352 9.15527e-05 152.927C4.89688 153.042 9.7937 153.272 14.6905 153.617C18.0346 153.847 21.4982 154.193 24.6035 155.458C26.6338 156.264 28.4253 157.53 29.5002 159.256C30.2169 160.521 30.5752 162.132 30.814 163.513C32.1278 170.762 32.9638 178.011 33.3221 185.26C34.6359 181.348 35.8302 166.62 36.5468 163.398C37.2634 160.176 38.8161 157.069 41.6825 155.343C43.7129 154.078 46.221 153.732 48.4902 153.387C53.9842 152.697 59.4782 152.121 65.0916 151.891L63.4194 151.661Z" fill="white"></path></svg>