<svg width="24" height="24" viewBox="0 0 24 24" fill="none" xmlns="http://www.w3.org/2000/svg">
<path d="M17.658 6.84956C17.5365 6.78694 17.4184 6.71794 17.3036 6.64332C16.9703 6.42283 16.6647 6.16334 16.3935 5.87011C15.7148 5.09352 15.4613 4.30568 15.368 3.75409H15.3717C15.2937 3.29624 15.326 3 15.3309 3H12.2395V14.9537C12.2395 15.1141 12.2395 15.2728 12.2328 15.4295C12.2328 15.449 12.2309 15.467 12.2298 15.488C12.2298 15.4966 12.2298 15.5056 12.2279 15.5146V15.5214C12.1619 16.3925 11.6665 17.1732 10.9072 17.6048C10.5176 17.8264 10.0766 17.943 9.62814 17.9423C8.18783 17.9423 7.02052 16.7678 7.02052 15.3174C7.02052 13.867 8.18783 12.6925 9.62814 12.6925C9.90075 12.6925 10.1719 12.7353 10.431 12.8196L10.4347 9.67204C8.84368 9.46655 7.23913 9.93603 6.00994 10.9665C5.47709 11.4296 5.02899 11.9819 4.68626 12.5988C4.55576 12.8238 4.06341 13.7278 4.00379 15.1951C3.96629 16.028 4.21641 16.8908 4.33565 17.2474V17.2549C4.41065 17.4649 4.70126 18.1815 5.17486 18.7856C5.55659 19.2701 6.00807 19.6957 6.51392 20.0489V20.0414L6.52142 20.0489C8.01797 21.0658 9.67726 20.9991 9.67726 20.9991C9.96449 20.9875 10.9267 20.9991 12.0194 20.4813C13.2313 19.9072 13.9213 19.0518 13.9213 19.0518C14.3619 18.5407 14.7125 17.9584 14.9577 17.3295C15.2375 16.5942 15.3309 15.7122 15.3309 15.3598V9.01807C15.3684 9.04057 15.8678 9.37093 15.8678 9.37093C15.8678 9.37093 16.5874 9.83216 17.7101 10.1325C18.5156 10.3463 19.6008 10.3913 19.6008 10.3913V7.32241C19.2205 7.36366 18.4484 7.24366 17.658 6.84956Z" fill="#FDFDFD"/>
</svg>
