<svg fill="none" height="374" viewBox="0 0 312 374" width="312" xmlns="http://www.w3.org/2000/svg"><path d="m157.607 157.852c.158 1.877.336 2.964.336 2.964-.175-.559-.29-2.313-.336-2.964z" fill="#00adad"/><path d="m215.904 181.494c-.625-2.635-2.889-4.353-5.056-3.839-2.168.514-3.42 3.066-2.795 5.7s2.889 4.353 5.057 3.839 3.419-3.066 2.794-5.7z" fill="#f2b200"/><path d="m215.904 181.494c-.625-2.635-2.889-4.353-5.056-3.839-2.168.514-3.42 3.066-2.795 5.7s2.889 4.353 5.057 3.839 3.419-3.066 2.794-5.7z" fill="#f2b200"/><path d="m145.527 168.573c-1.016.313-1.828 1.268-2.198 2.435-.369 1.166-.358 2.497-.094 3.761.038.239.105.492.239.674.142.272.372.467.621.586.666.385 1.407.399 2.113.379.912-.024 1.837-.075 2.761-.196.931-.099 1.996-.407 2.299-1.435.103-.359.164-.771.047-1.167-1.884-6.489-5.761-5.093-5.761-5.093z" fill="#f2b200"/><path d="m172.773 184.303c-.142.833-.381 1.654-.282 2.516.098.863.478 1.741 1.085 2.285.851.78 1.97.821 2.991.713 1.28-.154 2.67-.647 3.235-1.974.631-1.466.005-3.43-1.041-4.694-.869-1.026-2.138-1.75-3.242-1.359 0 0-2.446.566-2.773 2.5z" fill="#f2b200"/><path d="m210.706 177.912c-1.503.371-2.626 1.942-2.736 3.775-.11 1.834.763 3.78 2.12 4.818s3.136 1.122 4.444.267c.244-.155.453-.344.655-.554.591-.669.846-1.703.814-2.704-.012-1.008-.298-2.012-.679-2.958-.202-.504-.451-1.014-.795-1.398-.385-.439-.87-.705-1.382-.915-.567-.236-1.166-.369-1.757-.413l-.718.116z" fill="#f2b200"/><path d="m248.26 171.607c.312-.225.603-.443.83-.777.474-.674.516-1.724.226-2.611-.291-.886-.861-1.651-1.483-2.236-1.165-1.083-2.728-1.726-4.015-1.201-1.164.481-1.92 1.854-2.105 3.346s.16 3.049.707 4.466c.254.716 1.189 1.604 1.965 1.26 0 0 2.624-1.297 3.883-2.226z" fill="#f2b200"/><path d="m270.137 145.798c.163.655-.976 1.013-1.879 1.517-1.209.681-2.484 1.109-3.838 1.313-.328.047-.664.074-.942-.127-.16-.127-.294-.31-.387-.507-.803-1.488-.893-3.366-.455-4.924.128-.483.312-.939.6-1.294.517-.62 1.302-.806 2.034-.95.601-.121 1.202-.242 1.81-.02.318.117.603.338.889.559 1.135.933 2.188 4.426 2.188 4.426z" fill="#f2b200"/><path d="m266.211 133.612c2.395.786 4.846 2.771 6.656 4.891.512.601.99 1.237 1.265 2.014.837 2.235-.189 4.6-1.314 6.425-4.181 6.842-4.817 9.529-10.463 14.704-2.381 2.178-8.395 8.196-16.724 12.94-4.996 2.851-16.124 8.724-24.002 12.274 14.823-3.041 19.247-5.298 26.844-8.471 1.545-.639 5.656-3.522 7.453-4.618 4.762-2.929 8.935-6.869 13.08-10.822.809-.77 1.687-1.541 2.771-1.533.175 1.663-.718 3.107-1.58 4.31-1.967 2.698-4.253 5.533-6.625 7.868-30.351 18.71-77.147 27.757-111.008 22.583l-.031.172c2.728 2.831 5.322 6.192 10.362 9.055-.533-1.376-1.634-3.379-.431-3.621s2.448.284 3.674.563c2.149.481 4.312.222 6.44-.072 8.739-1.185 17.087-2.691 25.505-4.844 23.918-3.477 48.596-12.216 65.944-23.721 4.159-2.485 17.583-11.427 18.974-23.286 1.508-12.959-16.722-16.812-16.722-16.812z" fill="#141314"/><path d="m249.216 141.241c.163.656.284 1.257.404 1.79l-.432-1.803.021-.007z" fill="#141314"/><path d="m245.683 130.55c1.538.054 3.049.163 4.512.266.04-.083.052-.179.036-.288-.228-1.553-1.261-2.913-2.487-3.515-1.225-.601-2.588-.486-3.729.125.632 1.202 1.197 2.406 1.719 3.556-.022-.062-.036-.103-.058-.164z" fill="#f2b200"/><path d="m157.489 151.934c.039-1.256.137-2.602.295-4.039-.929.168-1.74.869-2.272 1.771-.552.909-.834 1.998-1.012 3.12l-.04.796c.984-.601 1.995-1.19 3.027-1.785.014.041.008.089.002.137z" fill="#f2b200"/><g fill="#00adad"><path d="m270.704 168.975c-2.829 17.937-23.643 35.639-51.858 42.317-21.931 5.189-42.801 2.525-55.971-5.881-.087-.245-.209-.524-.344-.775-.359-.886-.705-1.798-.606-2.363.019-.076.046-.131.092-.194.066-.138.215-.237.434-.268 1.203-.242 2.448.283 3.667.542 2.149.481 4.312.222 6.447-.051 8.759-1.192 17.087-2.692 25.498-4.865 23.918-3.477 48.596-12.216 65.944-23.721.265-.162.55-.332.889-.545l.02-.007c.149-.099.319-.205.488-.311.692-.452 1.491-.988 2.358-1.594.183-.134.373-.247.548-.401.772-.55 1.583-1.182 2.421-1.87z"/><path d="m280.625 157.546s-.046.131-.092.194c-.014.028-.04.083-.066.138-.074.118-.147.236-.22.354.126-.229.252-.457.378-.686z"/><path d="m271.981 167.901s.067-.07.108-.084c-.041.014-.067.07-.108.084z"/><path d="m282.936 150.492c-.126 2.047-.807 4.152-1.88 6.257.634-1.329 1.165-2.69 1.508-4.123.064-.276.148-.559.184-.848.081-.42.155-.86.216-1.273z"/><path d="m273.31 166.717s.121-.112.189-.182c-.068.07-.122.112-.189.182z"/><path d="m272.868 138.503c-1.802-2.1-4.233-4.092-6.608-4.885 0 0-.006.002-.02.007-5.74-1.718-12.688-2.755-20.528-3.062 1.813 4.144 2.893 7.973 3.513 10.698.444.28 5.939 3.972-1.64 11.419-8.037 7.908-18.664 14.156-34.184 18.087-24.498 6.191-45.846 3.282-45.846 3.282-5.96-1.756-15.525-6.675-9.951-16.403-.096-1.507-.181-3.502-.08-5.816-17.06 9.654-26.894 20.937-24.637 30.492 1.601 6.796 8.487 11.49 19.662 14.068l.031-.172c33.854 5.153 80.678-3.881 111.008-22.584 2.372-2.335 4.638-5.162 6.625-7.868.883-1.21 1.775-2.653 1.6-4.317-1.063-.015-1.961.763-2.77 1.533-4.146 3.953-8.319 7.893-13.073 10.842-1.777 1.09-5.908 3.979-7.425 4.632-7.604 3.153-12.021 5.43-26.844 8.47 7.857-3.542 18.998-9.443 24.001-12.273 8.33-4.744 14.344-10.763 16.725-12.94 5.625-5.168 6.281-7.862 10.462-14.704 1.118-1.846 2.165-4.218 1.335-6.432-.275-.777-.781-1.426-1.286-2.007zm-121.599 35.169c.13.368.049.788-.047 1.167-.304 1.028-1.368 1.336-2.299 1.436-.911.092-1.829.164-2.768.175-.707.02-1.448.006-2.093-.387-.256-.139-.486-.334-.621-.585-.121-.21-.16-.45-.239-.675-.264-1.264-.282-2.615.094-3.761.39-1.173 1.182-2.121 2.198-2.435 0 0 3.857-1.389 5.762 5.093zm28.561 14.184c-.585 1.335-1.962 1.8-3.242 1.954-1.013.128-2.153.095-2.984-.693-.607-.544-.966-1.429-1.085-2.284-.106-.883.133-1.704.283-2.516.327-1.934 2.773-2.501 2.773-2.501 1.083-.384 2.345.32 3.215 1.346 1.066 1.257 1.672 3.228 1.04 4.694zm36.188-4.371c.012 1.009-.25 2.022-.821 2.684-.195.23-.424.427-.648.575-1.308.854-3.086.771-4.443-.267-1.37-1.011-2.251-2.977-2.12-4.818.117-1.813 1.253-3.412 2.742-3.755l.711-.137c.598.064 1.177.204 1.737.42.504.19.989.455 1.382.914.343.385.593.895.802 1.419.374.926.667 1.95.679 2.958zm33.078-12.634c-.227.334-.538.559-.829.777-1.259.929-3.883 2.226-3.883 2.226-.776.344-1.691-.551-1.965-1.26-.527-1.424-.872-2.981-.7-4.446.185-1.492.921-2.857 2.085-3.338 1.308-.532 2.87.111 4.036 1.194.628.606 1.219 1.363 1.51 2.249.29.887.248 1.937-.226 2.611zm21.068-25.04c.163.656-.976 1.013-1.899 1.524-1.209.681-2.483 1.11-3.845 1.293-.328.047-.685.081-.963-.12-.16-.127-.273-.317-.407-.5-.803-1.487-.885-3.345-.455-4.924.128-.482.312-.938.6-1.294.524-.599 1.309-.786 2.033-.95.595-.141 1.224-.249 1.811-.02.318.118.611.359.896.58 1.128.912 2.188 4.426 2.188 4.426z"/><path d="m278.516 160.893c-.187.25-.375.501-.582.758.187-.25.395-.508.582-.758z"/></g><path d="m280.625 157.546s-.046.131-.092.194c-.014.028-.04.083-.066.138-.074.118-.147.236-.22.354.126-.229.252-.457.378-.686z" fill="#141314"/><path d="m152.533 196.349c2.728 2.831 5.322 6.192 10.362 9.055-.533-1.376-1.634-3.379-.431-3.621" fill="#141314"/><path d="m249.217 141.241c.163.655.284 1.257.404 1.79 0 0-9.491 14.198-42.282 21.6-32.791 7.401-47.344 2.822-49.402-3.835-.007-.021-.022-.062-.036-.103-.048-.328-.182-1.293-.299-2.793-.023-.13-.011-.226-.026-.267-.688-10.065.26-40.98 36.835-49.653 41.471-9.8537 52.074 21.711 54.779 33.248z" fill="#80e0db"/><path d="m213.374 170.754c-24.499 6.191-45.854 3.261-45.854 3.261-5.96-1.755-15.546-6.667-9.951-16.403 0 0 .122 2.488.34 3.17 2.059 6.657 16.605 11.216 49.403 3.835 32.791-7.401 42.282-21.6 42.282-21.6l-.432-1.803s6.277 3.691-1.612 11.432c-8.037 7.908-18.664 14.156-34.184 18.088z" fill="#141314"/><path d="m249.216 141.241c.163.656.284 1.257.404 1.79l-.432-1.803.021-.007z" fill="#141314"/><path d="m208.153 109.879c-1.479-.213-3.056.207-4.253 1.115-.271.21-.534.442-.651.759-.118.318-.09.722.168.93.195.161.484.197.745.22 1.545.074 3.078-.078 4.588-.429.977-.23 1.945-.55 2.948-.445 1.052.11 1.983.724 3.042.855.942.127 1.863-.13 2.785-.388.143-.05.286-.101.429-.152.406-.282.415-.906.133-1.312-.282-.407-.752-.631-1.201-.794-1.624-.622-3.384-.85-5.124-.694l-3.574.368z" fill="#fdfdfd"/><path d="m221.808 112.705c7.233 2.754 12.28 9.273 16.916 15.477 2.674 3.587 5.524 7.801 4.57 12.188-1.323-.682-1.874-2.236-2.407-3.611-3.304-8.356-10.301-14.599-17.072-20.531-.537-.477-1.095-.947-1.785-1.14-.558-.147-1.196-.128-1.641-.477-.446-.348-.313-1.339.272-1.246l1.188-.674z" fill="#fdfdfd"/></svg>