<svg width="55" height="18" class="vodafone" enable-background="new 0 0 613.6 163" viewBox="0 0 613.6 163" xmlns="http://www.w3.org/2000/svg"><g fill="#fff" transform="matrix(.27560986 0 0 .27560986 -3.5659 -64.77683)"><path d="m300.5 260.5c-149.3 0-270.3 121-270.3 270.2 0 149.3 121 270.3 270.3 270.3s270.2-121 270.2-270.3c0-149.2-121-270.2-270.2-270.2zm2.1 420.9c-74.2.3-151.5-63.1-151.8-164.9-.2-67.3 36.1-132.1 82.5-170.5 45.3-37.4 107.3-61.5 163.5-61.7 7.2 0 14.8.6 19.5 2.2-49.2 10.2-88.3 56-88.1 107.8 0 1.7.1 3.6.3 4.4 82.3 20.1 119.6 69.7 119.9 138.4.1 68.7-54.1 144-145.8 144.3z"></path><path d="m745.2 642.6-82.6-197.2h54l51.5 130.9 49.9-130.8h51.5l-80.2 197.2h-44.1z"></path><path d="m1013.4 543c0-8.2-.9-16-2.9-23.4-1.9-7.4-4.8-13.8-8.6-19.1-3.8-5.4-8.4-9.6-13.9-12.7-5.5-3.2-11.9-4.8-19.2-4.8s-13.8 1.6-19.2 4.8c-5.5 3.1-10.1 7.3-13.9 12.7-3.8 5.3-6.7 11.7-8.6 19.1s-2.9 15.2-2.9 23.4c0 8.5.9 16.4 2.9 23.6 1.9 7.2 4.7 13.6 8.3 19.1 3.7 5.5 8.3 9.8 14 13 5.6 3.1 12.1 4.7 19.4 4.7s13.8-1.6 19.2-4.7c5.5-3.2 10.1-7.5 13.9-13s6.7-11.8 8.6-19.1c1.9-7.2 2.9-15.1 2.9-23.6m49.9.2c0 12.9-2 25.5-5.9 37.9-4 12.4-9.8 23.5-17.6 33.3-7.7 9.8-17.6 17.7-29.4 23.7-11.9 6-25.7 9-41.5 9s-29.7-3-41.5-9c-11.9-6-21.7-13.9-29.5-23.7-7.7-9.8-13.6-20.9-17.6-33.3-3.9-12.4-5.9-25-5.9-37.9 0-12.8 2-25.3 5.9-37.6 4-12.3 9.8-23.2 17.6-32.9s17.6-17.4 29.5-23.3c11.8-5.9 25.7-8.8 41.5-8.8s29.6 3 41.3 8.8c11.7 5.9 21.5 13.6 29.4 23.3s13.9 20.7 17.8 32.9c3.9 12.3 5.9 24.8 5.9 37.6"></path><path d="m1215.6 488.8c-9.8-3.8-18.9-5.8-27.3-5.8-8.6 0-16.1 1.7-22.3 5-6.3 3.3-11.4 7.7-15.5 13.3s-7.1 11.9-9.1 18.9-3.1 14.2-3.1 21.5c0 8.2.9 16 2.7 23.6 1.7 7.5 4.5 14.1 8.1 19.7s8.2 10.1 13.8 13.6c5.6 3.4 12.2 5.1 19.8 5.1 6.3 0 12.6-1.7 19.1-5.1s11.1-7.5 13.9-12.1zm4.1 153.8-2-15.1c-4.6 5.2-10.7 9.7-18.4 13.7-7.6 4-16.6 6-26.9 6-13.6 0-25.6-2.9-35.8-8.6-10.4-5.7-19.1-13.4-26.1-22.9-7.1-9.5-12.5-20.6-16.1-33.2-3.6-12.5-5.5-25.6-5.5-39.3 0-12.8 1.9-25.4 5.7-37.6 3.8-12.3 9.6-23.2 17.3-32.9 7.8-9.7 17.5-17.4 29.2-23.3s25.4-8.8 41.2-8.8c10.3 0 21.5 1.9 33.5 5.7v-76.5h50.7v272.8z"></path><path d="m1409.1 550.2c-5.5.3-11.1.8-16.9 1.4-5.8.7-11.2 1.6-16.4 2.7-11 2.2-18.6 5.9-22.9 11.2-4.2 5.4-6.4 11.1-6.4 17.4 0 6.5 2.4 11.8 7.2 15.7s11.6 5.9 20.4 5.9c6.6 0 13-1.3 19.2-4.1 6.2-2.7 11.5-6.2 15.8-10.2zm4.1 92.3-2-14.7c-5.5 6.1-12.5 10.8-21 14.2s-17.8 5.2-27.9 5.2c-8.5 0-16.7-1.4-24.4-4.3-7.8-2.8-14.7-7-20.8-12.3-6-5.3-10.9-11.8-14.5-19.6-3.7-7.8-5.6-16.6-5.6-26.4s1.9-18.5 5.8-26c3.8-7.5 9-13.8 15.6-19s14.1-9.4 22.6-12.7c8.4-3.3 17.4-5.8 26.7-7.4 6.6-1.3 13.8-2.3 21.5-3 7.8-.7 14.3-1.3 19.5-1.8v-2.9c0-10.9-2.8-18.7-8.4-23.3s-13.4-7-23.2-7c-5.8 0-11.3.7-16.5 2.1-5.2 1.3-9.8 3-14 5.1-4.1 2.1-7.7 4.1-10.9 6.2-3.1 2-5.7 3.9-7.6 5.5l-16.8-35.6c2.2-1.9 5.5-4.2 10-7 4.5-2.7 9.9-5.4 16.4-8 6.4-2.6 13.6-4.8 21.6-6.6s16.7-2.7 26-2.7c10.9 0 20.9 1.4 29.9 4.3s16.8 7.3 23.3 13.5c6.5 6.1 11.6 13.9 15.3 23.3s5.5 20.8 5.5 34.1v126.7z"></path><path d="m1616.2 414.8c-1.6-.8-4.8-2-9.6-3.5s-11.1-2.2-19.1-2.2c-7.1 0-13 2.1-17.8 6.4-4.8 4.2-7.1 11.1-7.1 20.7v9.4h42.6v40.9h-42.2v156.3h-50.7v-156.4h-26.2v-40.9h26.2v-10.6c0-12.8 1.6-23.6 4.9-32.5 3.3-8.8 7.8-16.1 13.7-21.6 5.9-5.6 12.8-9.7 20.7-12.3s16.5-3.9 25.8-3.9c12.3 0 22.4 1.1 30.4 3.5 8 2.3 12.8 3.9 14.1 4.7z"></path><path d="m1754.5 543c0-8.2-1-16-2.9-23.4s-4.8-13.8-8.6-19.1c-3.8-5.4-8.4-9.6-13.9-12.7-5.5-3.2-11.9-4.8-19.2-4.8s-13.8 1.6-19.2 4.8c-5.5 3.1-10.1 7.3-14 12.7-3.8 5.3-6.7 11.7-8.6 19.1s-2.8 15.2-2.8 23.4c0 8.5.9 16.4 2.8 23.6s4.7 13.6 8.4 19.1 8.3 9.8 13.9 13c5.6 3.1 12.1 4.7 19.5 4.7 7.3 0 13.8-1.6 19.2-4.7 5.5-3.2 10.1-7.5 13.9-13s6.7-11.8 8.6-19.1c1.9-7.2 2.9-15.1 2.9-23.6m49.9.2c0 12.9-2 25.5-6 37.9-3.9 12.4-9.8 23.5-17.6 33.3-7.7 9.8-17.6 17.7-29.4 23.7-11.9 6-25.7 9-41.5 9s-29.7-3-41.5-9c-11.9-6-21.7-13.9-29.5-23.7-7.7-9.8-13.6-20.9-17.6-33.3s-5.9-25-5.9-37.9c0-12.8 1.9-25.3 5.9-37.6s9.8-23.2 17.6-32.9 17.6-17.4 29.5-23.3c11.8-5.9 25.7-8.8 41.5-8.8s29.6 3 41.3 8.8c11.7 5.9 21.5 13.6 29.4 23.3s13.9 20.7 17.8 32.9c4 12.3 6 24.8 6 37.6"></path><path d="m1961.8 642.6v-112.4c0-15-3.1-26.6-9.4-34.8-6.3-8.1-15-12.3-26.2-12.3-7.9 0-15.2 2-21.8 6.2-6.7 4.1-12.5 8.6-17.4 13.5v139.9h-50.7v-197.2h46.2l2.4 15.5c7.9-6.5 16.8-11.6 26.8-15.1 9.9-3.6 20-5.3 30-5.3 10.4 0 19.9 1.5 28.6 4.7s16.2 8.1 22.5 14.9 11.1 15.7 14.5 26.6 5.1 24 5.1 39.3v116.6z"></path><path d="m2170.3 520.3c-.5-6.8-2-12.8-4.3-17.8-2.3-5.1-5.2-9.1-8.6-12.3s-7.1-5.5-11.1-7-8-2.2-12.2-2.2c-8.8 0-17.1 3.3-25.1 9.8-7.9 6.6-12.6 16.3-14 29.4h75.3zm-76.4 36.4c1.1 16.6 6.3 28.6 15.6 36 9.3 7.3 21.4 11.1 36.1 11.1 6.9 0 13.3-.6 19.3-1.8s11.4-2.8 16-4.7c4.7-1.9 8.6-3.8 11.9-5.7s5.7-3.7 7.4-5.4l13.5 41.4c-1.9 1.3-5 3.2-9.2 5.5s-9.5 4.5-15.7 6.6c-6.3 2-13.7 3.8-22.1 5.3s-17.7 2.2-27.8 2.2c-12.9 0-25-2-36.6-6.1s-21.7-10.5-30.4-19.1-15.7-19.3-20.9-32.1-7.8-28.1-7.8-45.8c0-16.6 2.4-31.4 7.1-44.2 4.8-12.8 11.3-23.6 19.6-32.3s18-15.4 29-20.1c11.1-4.6 22.8-7 35.4-7s24.1 2.1 34.8 6.2c10.6 4.1 19.8 10.4 27.6 19 7.7 8.6 13.9 19.7 18.4 33.4 4.5 13.6 6.8 29.8 6.8 48.7v9h-128z"></path></g></svg>