<svg width="24" height="24" viewBox="0 0 24 24" fill="none" xmlns="http://www.w3.org/2000/svg">
<path d="M20.8125 2.61662C20.7292 2.53328 20.6458 2.44995 20.4792 2.44995H16.2292C16.0625 2.44995 15.9792 2.53328 15.8958 2.61662L9.5625 13.7833C9.47917 13.8666 9.47917 14.0333 9.5625 14.2L13.6458 21.3666C13.7292 21.5333 13.8125 21.5333 13.9792 21.5333H18.2292C18.3958 21.5333 18.4792 21.45 18.5625 21.3666C18.6458 21.2833 18.6458 21.1166 18.5625 20.95L14.6458 13.95L20.8125 2.94995C20.8958 2.94995 20.8958 2.78328 20.8125 2.61662Z" fill="#FDFDFD"/>
<path d="M10.8125 10.2L8.47917 6.03328C8.39583 5.86662 8.22917 5.78328 8.14583 5.78328H4.14583C3.97917 5.78328 3.89583 5.86662 3.8125 5.94995C3.72917 6.03328 3.72917 6.19995 3.8125 6.36662L6.0625 10.3666L3.0625 15.45C2.97917 15.5333 2.97917 15.7 3.0625 15.8666C3.14583 16.0333 3.22917 16.0333 3.39583 16.0333H7.39583C7.5625 16.0333 7.64583 15.95 7.72917 15.8666L10.8958 10.6166C10.8958 10.5333 10.8958 10.3666 10.8125 10.2Z" fill="#FDFDFD"/>
</svg>
