<svg fill="none" height="99" viewBox="0 0 339 99" width="339" xmlns="http://www.w3.org/2000/svg" class="absolute hidden tablet:block z-0 tablet:w-[250px] tablet:bottom-[18px] laptop:left-[13px] laptop:block laptop:w-[339px]"><path clip-rule="evenodd" d="M333.347 91.1308C343.044 87.1419 333.365 104.35 331.722 94.5395L333.347 91.1308Z" fill="white" fill-rule="evenodd"></path><path clip-rule="evenodd" d="M219.11 76.8982C214.48 72.2682 223.013 66.6459 224.534 74.6493C223.608 75.9061 222.417 77.0966 220.83 77.6258L219.11 76.8982Z" fill="white" fill-rule="evenodd"></path><path clip-rule="evenodd" d="M3.3961 13.3604C-4.40309 10.1904 2.89295 -0.627794 8.67944 8.07711C8.22659 10.0395 7.37119 12.0522 5.81135 13.4108H3.3961V13.3604Z" fill="white" fill-rule="evenodd"></path><path clip-rule="evenodd" d="M102.142 71.0913C101.763 72.4174 101.669 73.4594 100.816 74.5014C99.3006 74.5014 97.1219 73.9331 95.7957 73.1753C95.7957 71.6596 96.4587 69.2915 97.2165 67.9653C98.1638 67.9653 99.0164 68.5337 99.8689 68.5337L102.142 71.0913Z" fill="white" fill-rule="evenodd"></path><path clip-rule="evenodd" d="M22.0174 62.6655C25.3328 66.5493 30.1638 60.2974 24.1014 58.5923C23.0594 59.2554 22.1121 60.1079 21.5437 61.2446L22.0174 62.6655Z" fill="white" fill-rule="evenodd"></path><path clip-rule="evenodd" d="M297.336 68.989C300.066 79.0527 283.632 68.4537 294.07 67.3296L297.336 68.989Z" fill="white" fill-rule="evenodd"></path><path clip-rule="evenodd" d="M182.18 82.809C182.938 83.0932 183.412 83.4721 184.17 83.5669C184.738 82.9038 185.306 81.6723 185.496 80.8198C184.833 80.2515 183.507 79.5884 182.654 79.4937C182.275 79.8726 182.275 80.5356 181.896 80.9145L182.18 82.9038V82.809Z" fill="white" fill-rule="evenodd"></path><path clip-rule="evenodd" d="M67.9228 1.32616C68.3965 3.22068 69.1543 4.3574 68.8701 6.25192C67.165 7.38863 64.0391 8.33588 62.0498 8.33588C60.9131 6.63081 59.9659 3.3154 59.8711 1.23143C60.9131 0.568348 62.4287 0.663082 63.376 0L67.8281 1.32616H67.9228Z" fill="white" fill-rule="evenodd"></path><path clip-rule="evenodd" d="M55.3417 86.8525C52.5947 91.2099 60.078 93.957 59.7938 87.6103C58.8466 86.8525 57.7099 86.0947 56.4784 86L55.3417 86.8525Z" fill="white" fill-rule="evenodd"></path><path d="M169.937 46.6425C166.501 46.6425 162.996 46.4279 159.56 46.1418C158.228 45.9988 156.896 45.8557 155.844 45.1405C154.792 44.4253 154.091 43.2094 153.671 41.922C153.11 40.3486 152.97 38.632 152.829 36.9155C152.549 33.3394 152.338 29.7633 152.268 26.2588C151.637 31.6944 150.936 37.1301 149.674 42.4227C149.464 43.281 149.254 44.1392 148.623 44.7114C147.992 45.2836 147.15 45.4981 146.309 45.6412C141.822 46.4279 137.264 47.0716 132.707 47.4292C135.582 47.5007 138.456 47.6438 141.331 47.8583C143.294 48.0014 145.327 48.2159 147.15 49.0027C148.342 49.5033 149.394 50.2901 150.025 51.3629C150.445 52.1496 150.656 53.1509 150.796 54.0092C151.567 58.5151 152.058 63.0209 152.268 67.5268C153.04 65.095 153.741 55.9403 154.161 53.9377C154.582 51.9351 155.494 50.004 157.176 48.9312C158.368 48.1444 159.84 47.9298 161.173 47.7153C164.398 47.2861 167.623 46.9286 170.918 46.7855L169.937 46.6425Z" fill="white"></path></svg>