<svg width="339" height="99" viewBox="0 0 339 99" fill="none" xmlns="http://www.w3.org/2000/svg" class="absolute bottom-[18px] left-[13px] z-0 hidden w-[300px] tablet:w-[250px] laptop:bottom-[18px] laptop:left-[13px] laptop:block laptop:w-[339px]"><path fill-rule="evenodd" clip-rule="evenodd" d="M333.612 91.1307C343.309 87.1417 333.63 104.35 331.988 94.5394L333.612 91.1307Z" fill="white"></path><path fill-rule="evenodd" clip-rule="evenodd" d="M219.376 76.8978C214.746 72.2678 223.278 66.6456 224.8 74.649C223.874 75.9057 222.683 77.0963 221.096 77.6254L219.376 76.8978Z" fill="white"></path><path fill-rule="evenodd" clip-rule="evenodd" d="M3.66197 13.3601C-4.13722 10.1901 3.15881 -0.62816 8.94531 8.07674C8.49246 10.0391 7.63706 12.0518 6.07722 13.4104H3.66197V13.3601Z" fill="white"></path><path fill-rule="evenodd" clip-rule="evenodd" d="M102.408 71.0912C102.029 72.4173 101.935 73.4593 101.082 74.5013C99.5664 74.5013 97.3877 73.9329 96.0616 73.1751C96.0616 71.6595 96.7246 69.2914 97.4824 67.9652C98.4297 67.9652 99.2823 68.5335 100.135 68.5335L102.408 71.0912Z" fill="white"></path><path fill-rule="evenodd" clip-rule="evenodd" d="M22.2833 62.6654C25.5987 66.5492 30.4297 60.2972 24.3672 58.5922C23.3253 59.2552 22.378 60.1078 21.8096 61.2445L22.2833 62.6654Z" fill="white"></path><path fill-rule="evenodd" clip-rule="evenodd" d="M297.601 68.9888C300.331 79.0525 283.897 68.4535 294.336 67.3293L297.601 68.9888Z" fill="white"></path><path fill-rule="evenodd" clip-rule="evenodd" d="M182.446 82.8088C183.204 83.093 183.678 83.4719 184.436 83.5666C185.004 82.9035 185.572 81.6721 185.762 80.8196C185.099 80.2512 183.772 79.5881 182.92 79.4934C182.541 79.8723 182.541 80.5354 182.162 80.9143L182.446 82.9036V82.8088Z" fill="white"></path><path fill-rule="evenodd" clip-rule="evenodd" d="M68.188 1.32591C68.6616 3.22044 69.4194 4.35715 69.1352 6.25167C67.4302 7.38839 64.3042 8.33564 62.315 8.33564C61.1782 6.63057 60.231 3.31516 60.1363 1.23119C61.1782 0.568104 62.6939 0.662838 63.6411 -0.000244141L68.0933 1.32591H68.188Z" fill="white"></path><path fill-rule="evenodd" clip-rule="evenodd" d="M55.6073 86.8523C52.8603 91.2097 60.3436 93.9567 60.0595 87.6101C59.1122 86.8523 57.9755 86.0945 56.744 85.9998L55.6073 86.8523Z" fill="white"></path><path d="M170.202 46.6422C166.767 46.6422 163.261 46.4277 159.825 46.1416C158.493 45.9985 157.161 45.8555 156.109 45.1403C155.058 44.4251 154.357 43.2092 153.936 41.9218C153.375 40.3483 153.235 38.6318 153.095 36.9153C152.814 33.3392 152.604 29.7631 152.534 26.2585C151.903 31.6942 151.202 37.1298 149.94 42.4224C149.729 43.2807 149.519 44.139 148.888 44.7111C148.257 45.2833 147.416 45.4979 146.574 45.6409C142.087 46.4277 137.53 47.0714 132.972 47.429C135.847 47.5005 138.722 47.6435 141.596 47.8581C143.559 48.0011 145.593 48.2157 147.416 49.0024C148.607 49.5031 149.659 50.2898 150.29 51.3627C150.711 52.1494 150.921 53.1507 151.061 54.0089C151.833 58.5148 152.323 63.0207 152.534 67.5265C153.305 65.0948 154.006 55.94 154.427 53.9374C154.847 51.9348 155.759 50.0037 157.442 48.9309C158.634 48.1442 160.106 47.9296 161.438 47.715C164.663 47.2859 167.888 46.9283 171.184 46.7853L170.202 46.6422Z" fill="white"></path></svg>