<svg width="405" height="167" viewBox="0 0 405 167" fill="none" xmlns="http://www.w3.org/2000/svg" class="absolute right-[0] top-[-30px] z-0 w-[178px] tablet:right-[0] tablet:top-[-20px] tablet:w-[280px] laptop:right-[0] laptop:top-[0] laptop:w-[405px]"><path d="M374.148 151.809C376.665 151.462 379.237 151.273 381.78 151.121C382.75 151.054 383.728 151.052 384.595 151.464C385.461 151.877 386.075 152.657 386.495 153.497C387.05 154.584 387.311 155.745 387.577 156.939C388.123 159.424 388.602 161.918 389.049 164.417C388.985 160.535 388.955 156.649 389.364 152.768C389.415 152.162 389.528 151.515 389.904 151.064C390.281 150.613 390.925 150.391 391.507 150.211C394.709 149.203 397.961 148.322 401.232 147.571C399.137 147.794 397.009 148.021 394.9 148.146C393.463 148.245 391.95 148.287 390.549 147.915C389.639 147.675 388.772 147.263 388.2 146.544C387.788 146.002 387.566 145.368 387.376 144.729C386.376 141.641 385.608 138.521 384.968 135.351C384.644 137.158 385.002 143.66 384.93 145.1C384.859 146.539 384.353 148.006 383.236 148.958C382.452 149.632 381.415 149.941 380.406 150.214C378.101 150.864 375.748 151.422 373.378 151.849L374.12 151.846L374.148 151.809Z" fill="white"></path><path fill-rule="evenodd" clip-rule="evenodd" d="M399.062 121.291C388.943 118.774 406.204 109.583 402.101 119.247L399.062 121.291Z" fill="white"></path><path fill-rule="evenodd" clip-rule="evenodd" d="M344.804 145.219C344.015 144.99 343.452 145.013 342.806 144.527C342.71 143.714 342.952 142.458 343.329 141.782C344.173 141.747 345.576 142.108 346.363 142.505C346.41 142.995 346.088 143.49 346.154 143.948L344.822 145.187L344.804 145.219Z" fill="white"></path><path fill-rule="evenodd" clip-rule="evenodd" d="M393.16 83.9831C391.568 86.886 396.512 88.3823 396.067 84.2991C395.456 83.8378 394.692 83.4271 393.876 83.3733L393.16 83.9831Z" fill="white"></path><path fill-rule="evenodd" clip-rule="evenodd" d="M125.626 35.8256C130.248 31.2346 121.777 25.6122 120.237 33.5699C121.154 34.8234 122.335 36.0119 123.912 36.5437L125.626 35.8256Z" fill="white"></path><path fill-rule="evenodd" clip-rule="evenodd" d="M38.6368 76.2358C34.8314 81.054 43.3423 85.3455 43.9366 77.6746C42.8981 76.6291 41.6702 75.583 40.1556 75.2937L38.6371 76.1411L38.6368 76.2358Z" fill="white"></path><path fill-rule="evenodd" clip-rule="evenodd" d="M298.785 76.3295C298.867 80.0241 293.187 79.0576 295.663 75.1822C296.516 74.9956 297.463 74.9988 298.314 75.3806L298.69 76.3292L298.785 76.3295Z" fill="white"></path><path fill-rule="evenodd" clip-rule="evenodd" d="M2.4258 33.9957C-5.1467 39.0716 11.7636 41.5826 5.58733 34.7813L2.4258 33.9957Z" fill="white"></path><path fill-rule="evenodd" clip-rule="evenodd" d="M355.751 100.34C356.416 99.774 357.08 99.4921 357.462 98.6408C357.086 97.787 356.143 96.5523 355.292 95.9811C354.344 96.3568 353.109 97.3946 352.537 98.2452C352.82 98.8145 353.387 99.1953 353.575 99.6696L355.751 100.34Z" fill="white"></path><path fill-rule="evenodd" clip-rule="evenodd" d="M254.949 90.855C259.751 98.5966 262.706 81.7396 255.861 87.768L254.949 90.855Z" fill="white"></path><path fill-rule="evenodd" clip-rule="evenodd" d="M227.696 23.0118C224.741 28.4012 233.92 31.1793 233.093 23.5984C231.959 22.742 230.541 21.9794 229.026 21.8796L227.696 23.0118Z" fill="white"></path><path fill-rule="evenodd" clip-rule="evenodd" d="M327.988 93.9501C330.649 91.4014 333.758 96.243 329.209 96.9854C328.453 96.4145 327.887 95.7495 327.605 94.896L328.082 93.9504L327.988 93.9501Z" fill="white"></path><path fill-rule="evenodd" clip-rule="evenodd" d="M221.823 60.5591C226.93 62.7551 221.886 69.7478 218.212 63.957C218.595 62.7269 219.167 61.4027 220.213 60.4589L221.823 60.4644L221.823 60.5591Z" fill="white"></path><path fill-rule="evenodd" clip-rule="evenodd" d="M184.631 36.4778C181.722 28.5109 170.52 35.5775 179.119 41.6691C181.11 41.2969 183.197 40.4514 184.623 38.9406L184.631 36.5725L184.631 36.4778Z" fill="white"></path><path fill-rule="evenodd" clip-rule="evenodd" d="M275.422 24.958C275.443 18.8008 284.814 20.9165 280.435 27.1537C279.014 27.3383 277.404 27.3329 275.985 26.5703L275.422 24.958Z" fill="white"></path><path fill-rule="evenodd" clip-rule="evenodd" d="M101.891 67.7015C100.832 72.7184 93.5487 69.4731 98.1102 65.1311C99.3417 65.1353 100.667 65.5187 101.611 66.2797L101.891 67.7015Z" fill="white"></path><path d="M320.803 32.8565C326.315 32.8752 331.901 32.5338 337.414 32.1202C339.518 31.9832 341.622 31.7021 343.366 30.5552C345.111 29.4084 346.205 27.5388 346.864 25.5958C347.743 23.077 347.969 20.4841 348.196 17.8191C348.65 12.2729 348.959 6.7262 349.195 1.17928C350.182 9.61227 351.241 18.0455 353.244 26.3378C353.53 27.6357 353.96 29.006 354.9 29.8738C355.84 30.7416 357.289 31.0346 358.594 31.2552C365.77 32.5043 373.019 33.4655 380.269 34.1384C375.7 34.2671 371.058 34.3955 366.487 34.7402C363.368 34.9458 360.103 35.295 357.198 36.51C355.31 37.2962 353.566 38.443 352.544 40.1687C351.815 41.4631 351.52 42.9031 351.297 44.3433C350.041 51.3277 349.292 58.3139 348.833 65.3731C347.613 61.5504 346.501 47.3531 345.931 44.2531C345.361 41.1531 343.848 38.122 341.171 36.3837C339.289 35.1526 336.97 34.7845 334.723 34.4887C329.576 33.7508 324.356 33.2288 319.135 32.995L320.731 32.7842L320.803 32.8565Z" fill="white"></path></svg>