<svg xmlns="http://www.w3.org/2000/svg" width="1440" height="650" class="absolute hidden artist-decoration-svg" data-v-21fba564=""><rect width="100%" height="100%" fill="none"></rect><path fill="#4a90d6" stroke="#222" stroke-width="2" stroke-linejoin="round" d="M28.958 19.585" style="color:#000;"></path><path fill="#423885" stroke-width="2" stroke-linejoin="round" d="m-1.096 213.977 1078.19 436.52-1079.16.743.97-437.263z" style="color:#000;"></path><path fill="#4a90d6" stroke="#222" stroke-width="2" stroke-linejoin="round" d="M332.875 272.811" style="color:#000;"></path><path fill="#423885" stroke-width="2" stroke-linejoin="round" d="M142.092 0" style="color:#423885;"></path><path fill="none" stroke="#39307b" stroke-width="9" stroke-linejoin="round" d="M-17.26 350.5c0-9.669 7.831-17.5 17.5-17.5 9.668 0 17.5 7.831 17.5 17.5S9.908 368 .24 368c-9.669 0-17.5-7.831-17.5-17.5z"></path><path fill="#39307b" stroke="#39307b" stroke-width="11" stroke-linejoin="round" d="M444.242 520.362c0-9.669 7.831-17.5 17.5-17.5 9.668 0 17.5 7.831 17.5 17.5 0 9.668-7.832 17.5-17.5 17.5-9.669 0-17.5-7.832-17.5-17.5z"></path><svg width="96" height="119" viewBox="0 0 96 119" fill="none" xmlns="http://www.w3.org/2000/svg" y="490"><circle cy="100" r="19" fill="#39307B"></circle><g clip-path="url(#a)" fill="#39307B"><path d="m16.247 5.277-26.97 26.97a55.999 55.999 0 0 0-2.5 6.299L22.546 2.778a55.654 55.654 0 0 0-6.3 2.5ZM40 0c-.856 0-1.711.022-2.558.063l-53.38 53.379c-.04.847-.062 1.702-.062 2.558 0 .43.005.86.018 1.286L41.286.018C40.856.009 40.43 0 40 0ZM52.154 1.326l-66.828 66.828c.229 1.026.48 2.039.762 3.042L55.196 2.088a56.925 56.925 0 0 0-3.042-.762ZM64.044 5.412l-74.632 74.632c.408.851.833 1.694 1.281 2.523L66.567 6.693a57.886 57.886 0 0 0-2.522-1.281ZM73.963 11.478-4.522 89.963c.546.717 1.11 1.42 1.693 2.11l78.902-78.906a54.507 54.507 0 0 0-2.11-1.694v.005ZM82.215 19.206 3.206 98.216c.677.59 1.37 1.164 2.074 1.724l78.66-78.66a54.868 54.868 0 0 0-1.725-2.074ZM88.828 28.569l-76.259 76.258c.816.457 1.644.896 2.482 1.318l75.094-75.094a50.442 50.442 0 0 0-1.317-2.482ZM93.607 39.769 23.77 109.608c.985.295 1.98.569 2.988.811l67.661-67.662a59.802 59.802 0 0 0-.81-2.988ZM96 56c0-.865-.022-1.73-.063-2.585l-58.522 58.522c.856.041 1.72.063 2.585.063.39 0 .78-.009 1.17-.013l54.817-54.818c.009-.39.013-.78.013-1.169ZM93.823 71.51 55.51 109.823a55.724 55.724 0 0 0 5.842-2.043l30.432-30.433a56.631 56.631 0 0 0 2.043-5.842l-.004.005Z"></path></g><defs><clipPath id="a"><path fill="#fff" transform="translate(-16)" d="M0 0h112v112H0z"></path></clipPath></defs></svg></svg>