<svg width="378" height="290" viewBox="0 0 378 290" fill="none" xmlns="http://www.w3.org/2000/svg" class="absolute bottom-[-80px] right-[-35px] z-10 w-[120px] tablet:bottom-[-60px] tablet:right-[-35px] tablet:w-[220px] laptop:bottom-[0] laptop:right-[-60px] laptop:w-[378px]"><path d="M182.308 228.025C181.191 230.073 177.79 233.97 174.229 234.913C171.027 235.818 127.348 245.336 116.656 245.448C105.957 245.528 99.905 238.311 96.8505 233.315C93.828 228.312 35.6613 127.407 30.4005 119.003C25.146 110.632 2.11996 72.0725 1.69462 64.7931C1.34533 59.2235 6.76307 54.6253 12.2944 54.2505C10.4441 54.7858 9.09134 55.819 8.33814 57.1968C8.24239 57.3817 8.14022 57.5348 8.07637 57.7135C7.26564 59.4676 7.32876 61.7771 9.03132 64.6548C16.4346 76.9762 81.3339 192.825 99.0607 223.286C101.433 227.357 102.931 229.878 103.384 230.484C107.223 235.589 113.87 239.635 121.417 238.891C128.901 238.16 172.017 230.312 175.896 229.305C179.737 228.273 183.936 224.88 181.29 219.272C183.783 223.617 183.393 225.984 182.283 228.063L182.308 228.025Z" fill="#00ADAD"></path><path d="M12.3175 54.2125C10.7288 54.7288 9.23558 55.7237 8.36115 57.1588C9.08245 55.7874 10.4417 54.7862 12.3175 54.2125Z" fill="#FDFDFD"></path><path d="M181.311 219.234L95.5536 69.2038C89.7446 59.052 86.9887 58.7067 83.6012 58.3549C72.6667 57.2544 27.2441 54.0515 15.7863 53.8186C14.4848 53.7799 13.3173 53.9136 12.2837 54.2195C10.4335 54.7548 9.08069 55.788 8.32749 57.1658C8.23174 57.3507 8.12957 57.5038 8.06572 57.6825C7.31875 59.5898 7.56685 61.995 9.02067 64.6238C16.424 76.9452 81.3233 192.794 99.0501 223.255C101.422 227.326 102.921 229.847 103.374 230.453C107.213 235.558 113.859 239.604 121.407 238.86C128.89 238.129 172.006 230.281 175.886 229.274C179.726 228.242 183.925 224.849 181.279 219.241L181.311 219.234ZM172.747 207.742C172.032 207.984 100.008 218.752 100.008 218.752L16.7309 74.4955C16.7309 74.4955 97.8607 77.4343 98.722 77.2623C99.3409 77.0392 173.499 207.525 172.747 207.742Z" fill="#80E0DB"></path><path d="M95.56 229.194C96.3323 228.077 97.0986 225.436 98.9677 225.992C98.4188 226.732 97.902 227.134 97.2894 227.555C96.7789 227.822 96.1597 229.207 95.56 229.194Z" fill="#141314"></path><path d="M97.2822 232.664C97.8122 231 99.1018 227.989 101.239 228.557C100.626 229.144 99.7392 229.852 99.1139 230.375C98.3992 230.949 97.9331 232.103 97.3141 232.658L97.2822 232.664Z" fill="#141314"></path><path d="M145.699 238.885C146.459 236.71 149.202 236.66 151.116 236.278C152.296 236.208 154.447 235.181 155.174 236.661C155.524 237.752 154.293 238.397 153.495 238.39L153.476 238.294C154.12 238.033 155.11 237.006 154.166 236.763C153.432 236.744 152.207 236.922 151.218 236.954C149.221 237.087 146.861 237.061 145.725 238.847L145.699 238.885Z" fill="#141314"></path><path d="M138.662 216.937C136.511 220.12 139.087 224.382 140.962 227.126L140.911 227.203C137.817 225.996 135.995 219.029 138.662 216.937Z" fill="#141314"></path><path d="M140.633 216.179C142.701 215.235 145.016 216.365 146.642 217.699C148.301 219.026 149.978 220.449 151.069 222.421C153.192 225.911 151.596 230.045 147.105 229.316C146.097 229.086 144.757 228.69 144.126 228.02C146.116 228.684 148.374 229.195 149.963 228.016C153.32 225.056 149.028 220.175 146.381 218.05C144.856 216.563 142.656 215.675 140.671 216.204L140.633 216.179Z" fill="#141314"></path><path d="M20.8116 94.9108C22.3108 94.9431 23.0438 97.1188 23.8091 98.127L26.1047 101.981C27.144 104.195 31.0025 108.234 27.8249 110.096C27.8888 109.752 28.6353 109.503 28.4379 108.183C27.182 105.05 24.8991 101.426 23.4518 98.331C22.8205 97.3292 22.2469 95.1217 20.8307 95.0065L20.8116 94.9108Z" fill="#141314"></path><path d="M31.742 112.764L36.3014 119.981C37.4173 121.749 38.9033 123.708 38.7622 125.992C38.762 126.655 38.4555 127.778 37.5496 127.726L37.5305 127.631C38.2195 127.427 38.2197 126.597 38.1625 125.979C37.8824 123.911 36.6452 122.201 35.7079 120.332C35.7717 120.319 31.4677 112.72 31.742 112.764Z" fill="#141314"></path><path d="M11.6355 78.5314C12.2409 80.8985 14.3458 82.4685 15.4807 84.6634C15.6975 85.0846 15.9972 85.7545 15.6334 86.4243C15.3397 87.1132 14.1594 87.183 13.8278 86.5195C13.4579 85.9962 13.5282 85.5178 13.3115 85.0966L13.3753 85.0839C13.8665 85.3839 14.3509 86.8131 14.8233 86.0221C14.875 83.6234 11.4434 81.0577 11.6355 78.5314Z" fill="#141314"></path><path d="M10.2798 80.1956C11.6511 81.2486 11.9377 83.1817 12.9453 84.5728L10.2798 80.1956Z" fill="#8259FF"></path><path d="M10.0558 69.4591C8.07788 70.3517 6.45065 71.6719 5.81207 73.7897L5.62076 73.6621L5.90785 73.6048L5.92696 73.7005L5.73549 73.9046C5.54404 74.1087 5.62067 73.9938 5.54417 73.7769C4.77933 71.2758 8.22477 69.5926 10.0877 69.4528L10.0558 69.4591Z" fill="#141314"></path><path d="M4.34189 71.0647C4.61036 69.2529 6.04023 66.4462 8.15821 66.7531C6.7032 68.271 5.27385 69.2531 4.34189 71.0647Z" fill="#141314"></path><path d="M38.3713 63.7382C39.303 62.756 40.8528 64.3705 40.6356 65.4423C40.5078 65.9653 39.8123 66.3033 39.4679 65.9076L39.4552 65.8438C39.9912 65.5378 39.7362 65.0911 39.6725 64.6062C39.5004 64.0767 39.022 63.5087 38.4223 63.8276L38.4095 63.7638L38.3777 63.7701L38.3713 63.7382Z" fill="#141314"></path><path d="M46.7537 65.6802C49.561 64.9537 52.4763 65.5989 55.2706 65.6379C57.3886 65.7789 59.5005 64.8927 61.6632 65.0911C62.0013 65.1231 62.3204 65.0594 62.4289 64.9382C62.5693 64.8107 62.5502 64.5491 62.5246 64.5874C62.531 64.6193 62.4481 64.5363 62.4481 64.5363L61.8359 63.9619L62.0909 64.0769C57.5805 64.082 52.7128 64.1252 48.3939 63.4286C53.0129 63.1364 57.6446 63.074 62.2634 63.2795C62.9267 63.9431 63.7814 64.5686 62.8944 65.4424C61.8033 66.1247 60.7381 65.4417 59.5386 65.7476C55.3469 66.6842 50.7858 65.1071 46.7473 65.6483L46.7537 65.6802Z" fill="#141314"></path><path d="M16.7086 74.5331C16.7086 74.5331 98.0363 77.4656 98.6934 77.268C99.3506 77.0704 173.471 207.531 172.756 207.773C172.042 208.016 100.018 218.783 100.018 218.783L16.715 74.565L16.7086 74.5331Z" fill="#141314"></path><path d="M121.449 238.885C111.33 240.043 103.377 232.442 99.3155 223.899L85.0066 199.256C63.0906 160.94 32.4897 107.539 11.3074 69.0766C10.2234 66.971 8.87146 65.0184 8.01724 62.7342C5.96454 57.2726 10.6166 53.159 15.835 53.8751C10.6739 53.612 6.28363 57.2089 8.38738 62.594C9.21612 64.7505 10.6126 66.7606 11.7221 68.8279C33.5234 106.902 63.6457 160.73 85.3958 199.046L99.558 223.784C103.779 232.628 111.222 239.667 121.455 238.917L121.449 238.885Z" fill="#141314"></path><path d="M138.638 180.625C138.529 180.986 138.401 181.407 138.59 181.76C138.925 182.387 139.819 182.363 140.509 182.145C142.676 181.39 152.52 169.826 155.585 165.566C156.371 164.491 157.119 162.78 156.062 161.934C155.756 161.644 155.317 161.577 154.896 161.449C150.411 160.32 146.193 159.5 143.789 163.961C141.138 168.805 140.165 175.374 138.638 180.625Z" fill="#8259FF"></path><path d="M138.033 158.471C138.043 158.868 138.075 159.305 138.321 159.576C138.813 160.12 139.66 159.818 140.245 159.404C142.098 158.061 148.3 144.211 150.033 139.252C150.455 137.968 150.704 136.172 149.457 135.629C149.075 135.481 148.617 135.473 148.22 135.484C143.611 135.63 139.347 136.045 138.27 141.006C137.105 146.367 138 152.944 138.012 158.432L138.033 158.471Z" fill="#8259FF"></path><path d="M245.344 58.0986C251.434 61.9484 255.216 64.9666 258.451 71.3005C261.477 77.2425 264.739 83.0588 268.859 88.3146C269.561 89.2498 270.302 90.1642 271.082 91.0575C274.082 94.5943 277.372 97.8248 280.625 101.176C284.205 104.856 287.629 108.619 290.936 112.446C293.318 115.204 295.661 117.983 297.201 121.242C297.959 122.752 298.46 124.349 299 125.925C300.125 129.255 301.247 132.485 303.799 134.901C306.228 137.181 309.038 139.609 311.801 141.76C312.594 142.395 313.327 143.011 314.099 143.606C318.529 147.084 323.554 149.79 328.871 151.533C331.379 152.359 333.981 152.984 336.656 153.368C338.215 153.643 342.533 153.048 343.729 153.87C345.006 154.75 344.543 156.711 343.964 158.079C336.026 177.544 327.626 196.804 318.801 215.836C309.651 211.354 301.969 203.114 291.976 200.544C287.23 199.302 282.762 197.356 277.904 196.376C272.687 195.385 267.363 194.855 262.18 193.645C259.978 193.109 251.364 190.76 249.321 190.239C244.815 189.07 240.413 187.341 236.486 184.804C230.961 181.257 226.743 176.103 221.758 171.965C215.92 167.174 208.913 163.965 201.989 160.914C197.681 158.984 193.294 157.096 189.007 155.205C188.874 155.427 188.702 155.67 188.629 155.911C187.879 158.278 188.326 160.811 188.809 163.224C189.63 167.774 191.149 172.406 190.918 177.065C190.697 179.855 189.96 182.718 188.189 184.874C186.38 187.052 183.432 188.325 180.749 187.643C178.027 186.982 176.774 184.074 176.538 181.276C176.082 175.523 175.012 169.845 173.37 164.322C172.737 162.292 172.045 160.243 171.867 158.12C171.542 154.967 172.313 151.884 173.065 148.861L173.141 148.72C170.51 147.758 168.305 147.122 168.055 147.407C165.76 150.751 164.577 154.76 163.151 158.597C161.765 162.413 160.022 166.319 156.935 169.028C153.866 171.677 149.046 172.843 145.585 170.611C142.286 168.494 141.149 164.012 141.958 160.152C142.688 156.334 145.046 153.108 146.579 149.567C143.342 148.979 138.957 146.435 137.892 143.123C137.349 141.448 137.556 139.573 137.745 137.759C138.621 130.537 139.834 123.285 139.952 115.965C139.968 111.471 141.556 106.993 144.26 103.379C146.908 99.8471 149.597 96.3932 152.28 92.7405C158.358 84.5011 164.03 75.9745 169.113 67.0067C170.859 63.9564 172.647 60.9845 174.251 57.8585C174.724 56.9508 175.196 56.043 175.851 55.2893C179.149 51.5602 186.351 52.397 190.741 52.9727C201.715 54.3622 212.586 56.3114 223.544 57.1048C228.464 57.4473 233.505 57.8262 238.354 56.9974C239.64 56.7634 240.884 56.4509 242.163 56.6744C243.382 56.8797 244.494 57.5452 245.524 58.1532L245.344 58.0986Z" fill="#F2B200"></path><path d="M281.143 106.392C286.48 111.754 289.993 118.796 295.831 123.587C296.828 124.415 297.862 125.122 298.955 125.848C300.081 129.178 301.203 132.408 303.755 134.823C306.183 137.103 308.994 139.532 311.757 141.683C308.653 140.873 305.801 139.122 303.375 136.942C300.358 134.221 297.939 130.827 295.289 127.758C286.017 116.638 273.848 107.924 260.362 102.686C258.775 102.073 257.109 101.503 255.396 101.41C249.762 101.147 245.009 104.041 239.923 105.652C234.364 107.415 235.405 102.574 239.36 100.358C247.824 95.732 258.367 95.1848 267.477 98.1764C272.21 99.6772 277.853 102.406 281.044 106.395L281.143 106.392Z" fill="#141314"></path><path d="M213.541 124.647C213.541 124.647 213.62 124.606 213.677 124.524C214.601 123.425 214.113 121.57 214.914 120.335C215.982 118.655 217.528 117.022 219.127 115.865C222.032 113.757 225.644 112.783 229.239 112.625C229.775 112.59 230.504 112.352 230.37 111.819C230.262 111.523 229.901 111.414 229.582 111.383C227.287 111.048 224.988 110.614 222.968 109.476C220.949 108.338 219.247 106.476 218.887 104.199C218.576 102.299 219.277 100.311 220.246 98.6343C221.214 96.9574 222.567 95.5284 223.697 93.9664C225.402 91.5933 226.782 88.9904 228.102 86.3693C226.849 87.7956 225.556 89.2427 223.805 89.927C222.075 90.6504 219.74 90.3366 218.742 88.7533C217.954 87.5619 217.722 85.6197 216.346 85.4983C215.907 85.4308 215.494 85.6012 215.081 85.7716C214.255 86.1123 213.39 86.474 212.544 86.7756C211.462 87.2029 210.341 87.6512 209.17 87.723C208.236 87.7684 206.521 87.5769 206.446 86.3063C206.412 85.7704 206.675 85.2263 206.921 84.7423C208.335 81.9198 209.667 79.04 210.841 76.1445C209.619 78.0073 208.133 79.6586 206.647 81.3099C205.856 82.1866 205.065 83.0632 204.253 83.9007C200.829 87.3947 195.072 86.9957 191.009 84.5816C190.726 84.4303 190.423 84.2398 190.255 83.9262C190.067 83.5735 190.016 83.1971 189.966 82.8206C189.794 80.141 190.138 77.487 189.866 74.8101C189.594 72.1332 188.684 69.3942 186.591 67.7415C187.341 72.6323 187.597 77.6361 187.255 82.5569C187.116 84.748 186.784 87.1431 185.319 88.8336C182.891 91.6441 178.488 91.3273 175.088 92.7924C173.614 93.4293 172.347 94.3588 171.062 95.3485C168.353 97.3514 165.664 99.3936 162.955 101.397C160.871 102.965 159.325 104.598 156.839 105.322C154.354 106.046 151.664 106.577 149.621 108.224C150.202 111.29 152.636 113.769 155.495 115.062C158.354 116.356 161.505 116.687 164.611 116.841C168.196 117.041 172.393 117.821 175.91 118.46C183.784 119.895 188.413 121.2 195.77 123.365C200.019 124.62 206.242 124.569 210.65 125.085C211.628 125.217 212.763 125.265 213.46 124.59L213.541 124.647Z" fill="#141314"></path><path d="M316.835 73.5986C319.071 76.8381 318.301 80.677 317.113 81.5646C317.034 81.6065 316.956 81.6484 316.838 81.7113C316.682 81.7951 316.483 81.8005 316.326 81.8844C310.312 83.7392 304.278 85.5548 298.237 87.1718C297.671 86.1135 297.085 85.0161 296.519 83.9579C296.267 83.4876 296.037 83.0565 295.903 82.5233C295.861 82.4449 295.819 82.3665 295.777 82.2881C295.598 81.5772 295.655 80.7405 295.636 80.045C295.669 79.0698 295.684 78.1547 295.617 77.1822C295.617 77.1822 295.596 77.143 295.575 77.1038C300.896 75.3674 306.16 73.712 311.623 72.8068C312.416 72.6856 313.208 72.5645 314.002 72.5427C314.002 72.5427 316.154 72.7026 316.757 73.6405L316.835 73.5986Z" fill="#8E7BFF"></path><path d="M295.65 77.064C295.65 77.064 295.671 77.1032 295.692 77.1424C295.758 78.1149 295.743 79.0301 295.71 80.0054C295.711 80.7609 295.694 81.5765 295.851 82.2483C296.027 82.8599 296.26 83.3905 296.554 83.9392C297.119 84.9974 297.706 86.0948 298.272 87.1531C297.917 87.2424 297.522 87.3526 297.227 87.4601C296.22 87.7462 295.214 88.0322 294.244 88.198C253.839 99.0677 212.491 106.006 172.231 117.807C154.657 123.021 136.854 127.147 118.873 130.562C117.786 130.791 116.557 130.944 115.287 131.019C114.552 131.059 113.778 131.12 113.023 131.12C112.387 131.158 111.731 131.156 111.096 131.193C108.712 131.258 106.325 131.224 104.178 131.263C103.483 131.282 102.808 131.34 102.191 131.318C99.9483 131.459 97.564 131.524 95.5836 130.365C96.25 130.009 97.0156 129.65 97.8988 129.228C98.7219 128.788 99.7045 128.363 100.705 127.879C102.589 126.972 104.612 126.042 106.535 125.114C107.28 124.716 108.046 124.357 108.733 124.04C110.264 123.322 111.639 122.688 112.718 122.161C112.718 122.161 112.796 122.119 112.914 122.056C113.562 121.76 114.113 121.566 114.427 121.398C114.761 121.27 114.957 121.165 114.957 121.165C114.957 121.165 119.539 120.025 123.353 119.146C129.519 117.764 135.703 116.322 141.887 114.88C147.677 113.548 153.092 111.61 158.75 109.845C163.481 108.323 168.366 107.374 173.233 106.485C197.404 101.826 221.411 95.5416 245.393 89.7745C256.493 87.0645 267.791 85.0053 278.891 82.2953C283.335 81.1794 287.649 79.729 291.964 78.2786C293.206 77.8668 294.447 77.4549 295.668 77.0039L295.65 77.064Z" fill="#33CCCC"></path><path d="M295.9 82.5242C296.083 84.0901 296.566 85.7471 297.15 87.5008C255.802 98.7742 213.421 105.761 172.155 117.848C154.581 123.061 136.778 127.188 118.797 130.603C117.71 130.832 116.481 130.985 115.21 131.059C113.762 131.179 112.212 131.201 110.682 131.263C110.26 129.624 110.998 128.272 113.52 127.427C115.886 126.666 121.068 124.953 123.475 124.271C129.476 122.675 140.051 119.641 146.471 118.074C160.117 114.658 175.102 111.483 188.407 108.653C202.482 105.663 216.244 102.84 231.42 99.3625C253.928 94.2324 273.467 88.1694 295.921 82.5635L295.9 82.5242Z" fill="#00ADAD"></path><path d="M114.412 121.457C115.49 122.342 116.085 123.737 115.885 125.154C115.767 126.629 114.764 127.77 113.471 128.462C114.956 128.978 115.423 130.039 115.152 131.04C114.417 131.08 113.643 131.141 112.888 131.142C112.253 131.179 111.596 131.178 110.961 131.215C108.577 131.28 106.19 131.246 104.043 131.285C103.348 131.304 102.673 131.362 102.056 131.339C99.8134 131.48 97.4291 131.546 95.4488 130.387C96.1151 130.031 96.8806 129.672 97.7639 129.25C98.6261 128.789 99.5696 128.385 100.57 127.9C102.454 126.994 104.477 126.063 106.4 125.136C107.145 124.738 107.911 124.379 108.598 124.062C110.129 123.344 111.504 122.709 112.583 122.183C112.583 122.183 112.661 122.141 112.779 122.078C113.427 121.782 113.978 121.588 114.292 121.42L114.412 121.457Z" fill="#80E0DB"></path><path d="M295.9 82.5242C295.9 82.5242 295.817 82.3675 295.775 82.2891C295.596 81.5781 295.653 80.7414 295.634 80.046C295.667 79.0708 295.681 78.1557 295.615 77.1832C295.615 77.1832 295.594 77.144 295.573 77.1048C294.332 77.5166 293.09 77.9284 291.87 78.3794C292.075 80.0838 292.579 81.7801 293.002 83.4189L295.843 82.6054L295.9 82.5242Z" fill="#FFDB75"></path><path d="M293.094 83.3192C293.401 84.3647 293.648 85.3919 293.816 86.4611C293.893 87.0754 293.99 87.7289 294.163 88.2411C295.112 88.0362 296.14 87.7892 297.146 87.5032C297.501 87.4139 297.896 87.3036 298.191 87.1961C297.625 86.1379 297.039 85.0405 296.473 83.9822C296.221 83.5119 295.991 83.0808 295.857 82.5476" fill="#F2B200"></path><path d="M314.188 77.131C315.556 77.7099 316.269 79.7981 316.861 81.0942C316.945 81.251 317.029 81.4078 317.113 81.5646C317.034 81.6065 316.956 81.6484 316.838 81.7113C316.682 81.7951 316.483 81.8005 316.326 81.8844C310.312 83.7392 304.278 85.5548 298.237 87.1718C297.671 86.1135 297.085 85.0161 296.519 83.9579C296.267 83.4876 296.037 83.0565 295.903 82.5233L314.188 77.131Z" fill="#8259FF"></path><path d="M119.59 125.391C158.778 112.904 201.735 106.617 241.521 96.3808C264.025 90.3957 291.95 83.4269 314.184 77.0316L314.226 77.11C283.415 86.8819 248.885 95.9205 217.344 103.008C185.837 109.876 150.355 116.097 119.63 125.37L119.59 125.391Z" fill="#141314"></path><path d="M316.835 73.5986C319.239 77.1516 318.179 81.2968 316.838 81.7113C316.682 81.7951 316.483 81.8005 316.326 81.8844C315.53 81.1506 314.925 80.1131 314.524 79.2691C313.864 77.6567 313.694 75.8321 313.747 74.1405C313.752 73.5836 313.778 73.0659 314.023 72.5819L314.101 72.5401C314.101 72.5401 316.233 72.6606 316.835 73.5986Z" fill="#141314"></path><path d="M314.259 77.0925C314.683 77.3195 314.965 77.4709 314.16 77.0953C313.213 76.644 313.998 76.9804 314.259 77.0925Z" fill="#141314"></path><path d="M148.26 134.908C144.312 132.332 140.64 128.953 138.949 124.565C137.258 120.177 138.078 114.547 141.756 111.623C143.663 110.099 146.658 109.103 149.082 109.017C150.473 108.978 151.814 109.32 153.174 109.6C156.297 110.35 159.631 110.835 162.586 112.027C167.734 114.113 172.902 116.238 178.049 118.324C181.588 119.758 185.533 121.48 189.33 122.171C190.569 122.416 191.803 122.461 193.022 122.666C194.4 122.887 195.708 123.448 197.047 123.69C198.386 123.931 199.845 124.21 200.808 125.257C201.198 125.704 201.395 126.354 201.312 126.953C201.164 128.091 200.087 128.717 199.678 129.742C199.266 130.668 199.437 131.836 199.067 132.841C198.275 135.129 196.619 137.123 194.691 138.608C191.732 140.896 188.149 142.207 184.754 143.871C181.752 145.325 178.679 147.119 175.338 147.091C170.783 147.057 165.428 143.923 161.207 142.249C156.724 140.463 152.232 137.623 148.202 134.989L148.26 134.908Z" fill="#F2B200"></path><path d="M177.43 115.279C182.937 115.963 188.262 118.004 192.974 120.878C200.278 124.734 208.992 124.913 217.064 124.175C219.807 124.12 221.436 121.888 223.023 119.578C226.381 115.111 230.408 111.143 235.098 108.132L235.139 108.21C229.531 112.519 225.688 118.152 221.242 123.504C220.176 124.527 218.582 125.128 217.173 125.226C208.896 125.771 200.137 125.414 192.708 121.323C188.129 118.227 182.629 116.329 177.449 115.218L177.43 115.279Z" fill="#141314"></path><path d="M147.022 149.279C150.928 147.443 151.664 143.068 154.526 140.126C154.049 143.758 150.658 148.444 147.022 149.279Z" fill="#141314"></path><path d="M172.21 161.314C173.416 159.61 176.054 157.192 178.157 158.486C176.002 159.639 174.141 159.928 172.21 161.314Z" fill="#141314"></path><path d="M178.239 54.7688C179.161 56.4934 180.78 56.787 181.838 58.3885C180.957 58.9097 179.741 58.0484 179.282 57.2854C178.806 56.5827 178.02 55.4906 178.179 54.7506L178.239 54.7688Z" fill="#141314"></path><path d="M197.635 158.152C191.973 156.895 187.315 153.086 181.562 152.13C170.33 149.315 160.203 143.29 150.528 137.072C145.931 134.037 140.335 130.074 138.99 124.543C144.382 134.815 156.625 138.953 165.839 145.064C173.207 149.793 182.102 150.783 189.688 154.79C192.077 156.336 195.199 157.085 197.595 158.173L197.635 158.152Z" fill="#141314"></path><path d="M221.783 170.036C227.56 171.886 233.475 170.034 238.922 168.533C234.353 172.336 226.798 172.345 221.783 170.036Z" fill="#141314"></path><path d="M228.655 176.19C235.389 178.133 242.211 175.997 248.455 173.818C243.207 178.237 234.647 178.631 228.655 176.19Z" fill="#141314"></path><path d="M244.45 184.628C252.533 184.288 259.135 179.196 264.515 173.799C261.011 180.914 251.917 185.02 244.45 184.628Z" fill="#141314"></path><path d="M259.424 187.357C261.504 185.59 262.372 183.16 264.511 181.411C264.775 183.79 261.311 186.549 259.424 187.357Z" fill="#141314"></path><path d="M248.384 73.2059C250.567 70.8793 250.103 67.7504 250.822 64.947C252.624 67.5621 250.712 71.8099 248.384 73.2059Z" fill="#141314"></path><path d="M248.021 62.1604C249.342 64.6296 247.53 67.4631 245.848 69.2192C247.568 65.931 246.907 64.3185 248.021 62.1604Z" fill="#141314"></path><path d="M153.94 126.478C148.66 132.628 139.998 127.079 135.188 122.796C133.578 121.389 132.241 119.735 130.864 118.103C129.178 116.081 127.513 114.099 125.827 112.077C125.416 111.591 124.963 111.027 124.905 110.352C124.778 109.361 125.528 108.406 126.45 107.964C127.373 107.521 128.447 107.551 129.443 107.623C137.964 108.006 165.944 112.449 153.937 126.379L153.94 126.478Z" fill="#8259FF"></path><path d="M179.809 175.899C179.601 179.185 179.371 182.433 179.163 185.719C178.981 188.488 178.798 191.257 177.875 193.867C176.884 193.994 176.179 190.036 176.014 189.067C175.348 185.088 174.619 180.992 175.29 177.156C175.776 174.578 180.079 171.974 179.809 175.899Z" fill="#8259FF"></path></svg>